<?xml version="1.0" encoding="utf-8"?>
<!-- Generator: Adobe Illustrator 16.0.0, SVG Export Plug-In . SVG Version: 6.00 Build 0)  -->
<!DOCTYPE svg PUBLIC "-//W3C//DTD SVG 1.1//EN" "http://www.w3.org/Graphics/SVG/1.1/DTD/svg11.dtd">
<svg version="1.1" id="Layer_1" xmlns="http://www.w3.org/2000/svg" xmlns:xlink="http://www.w3.org/1999/xlink" x="0px" y="0px"
	 width="2565.35px" height="2405.014px" viewBox="0 1657.654 2565.35 2405.014"
	 enable-background="new 0 1657.654 2565.35 2405.014" xml:space="preserve">
<g id="row_4">
</g>
<g id="row_3">
</g>
<g id="row_2">
</g>
<g id="row_1">
	<g id="quality">
		<path fill="#FFD54F" d="M1819.794,2471.35l212.442-521.086c4.009-12.024,4.009-28.06-4.008-40.084l-16.033-20.043h-20.043
			l-541.128,144.303l-412.86-364.762l-16.032-12.023h-16.033c-24.051,0-44.092,20.042-44.092,40.084l-32.067,561.17
			l-468.978,292.609c-16.033,8.018-20.043,24.051-20.043,40.082l4.01,28.061l537.119,216.451l260.543,793.654
			c4.009,20.041,24.051,32.066,40.084,32.066s36.074-12.025,40.084-28.059l252.524-681.422l501.045,60.125h4.011
			c16.032,0,32.064-8.018,36.073-24.051l12.025-24.051L1819.794,2471.35z"/>
		<g>
			<polygon fill="#FFECB3" points="1523.177,2098.572 1430.984,2126.63 1322.759,2030.43 1663.469,2884.21 1843.845,2904.252 			"/>
			<polygon fill="#FFE082" points="1134.365,1862.078 1038.165,1777.903 1010.107,2307.007 974.031,2327.048 1362.843,3301.079 
				1523.177,2864.168 1535.202,2868.177 			"/>
		</g>
		<path fill="#FFCA28" d="M1290.691,3569.64l-68.142-204.427l44.092-16.033l28.06,80.167l52.107-144.301l44.092,16.034
			L1290.691,3569.64z M1418.958,3216.904l-44.093-16.034l140.293-376.785l188.395,24.05l-4.009,44.094l-152.317-20.042
			L1418.958,3216.904z M1992.154,2892.227l-48.1-80.166l40.084-24.051l48.1,80.167L1992.154,2892.227z M1050.19,2836.109
			l-20.042-56.117l-521.086-208.437l60.125-36.073l12.025,16.032l489.02,196.409l24.05,76.159L1050.19,2836.109z M673.404,2523.458
			l-24.05-40.084l312.652-196.409l24.05,40.083L673.404,2523.458z M1831.82,2327.048l-44.092-16.032l140.293-340.711l44.092,16.033
			L1831.82,2327.048z M1439.001,2122.622l-84.177-76.159l32.066-36.074l68.143,60.125l424.888-112.232l12.022,44.092
			L1439.001,2122.622z M1074.24,1801.953l-28.059-24.05h-24.05l4.009-80.167l80.167,72.148L1074.24,1801.953z"/>
		<g>
			<rect x="841.756" y="3581.664" fill="#FF7043" width="881.839" height="200.418"/>
			<rect x="681.422" y="3701.915" fill="#B71C1C" width="1202.508" height="320.669"/>
			<rect x="641.338" y="3982.5" fill="#3E2723" width="1282.675" height="80.168"/>
			<rect x="1002.09" y="3701.915" fill="#FFB300" width="561.17" height="240.502"/>
			<rect x="1042.174" y="3741.999" fill="#FBE9E7" width="481.003" height="160.334"/>
		</g>
		<g>
			<path fill="#FFCA28" d="M673.404,3541.581l-168.351-228.478c-40.084-124.26-40.084-252.525,0-372.776
				c4.009-12.024,16.032-24.05,32.065-28.06s28.06,4.01,40.083,12.024C713.488,3096.653,753.572,3333.146,673.404,3541.581z"/>
			<path fill="#FFCA28" d="M456.951,3224.921c-16.032-36.075-28.059-64.134-36.073-92.192
				c68.143-208.435,24.051-436.909-116.242-601.254c-8.017-8.017-20.042-12.023-28.059-12.023
				c-20.042,0-32.067,12.023-40.084,28.061c-64.136,212.441-4.01,444.928,148.31,605.263l0,0
				c8.017,28.059,20.042,56.116,36.075,92.19L456.951,3224.921z"/>
			<path fill="#FFB300" d="M581.213,3341.163c-32.067,0-60.126-36.075-60.126-80.167s28.059-80.168,60.126-80.168
				c32.064,0,60.125,36.076,60.125,80.168S613.279,3341.163,581.213,3341.163z"/>
			<path fill="#FFB300" d="M312.652,3156.778c-20.042,0-44.092-12.024-64.134-28.061c-16.033-16.032-24.05-32.064-28.059-48.101
				c-4.008-20.041,0-40.083,12.023-52.108c24.05-24.05,68.144-16.032,100.209,16.034c16.033,16.033,24.05,32.064,28.06,48.102
				c4.01,20.041,0,40.084-12.024,52.107C340.71,3152.77,324.677,3156.778,312.652,3156.778z"/>
			<path fill="#FFB300" d="M761.589,3597.698c-28.061-20.042-60.126-44.093-92.192-76.159
				c-68.144-208.436-240.502-368.77-456.953-412.861c-16.031-4.008-32.064,4.01-40.084,16.034
				c-8.017,12.024-8.017,24.05-4.008,36.075c76.158,204.426,260.543,356.744,476.994,392.818
				c32.065,28.06,64.135,56.115,92.191,76.157L761.589,3597.698z"/>
		</g>
		<g>
			<path fill="#FFE082" d="M1891.945,3541.581l168.352-228.478c40.084-124.26,40.084-252.525,0-372.776
				c-4.008-12.024-16.031-24.05-32.064-28.06s-28.061,4.01-40.084,12.024C1851.862,3096.653,1811.779,3333.146,1891.945,3541.581z"
				/>
			<path fill="#FFD54F" d="M2108.397,3224.921c16.033-36.075,28.058-64.134,36.075-92.192
				c-68.145-208.435-24.051-436.909,116.242-601.254c8.017-8.017,20.041-12.023,28.059-12.023c20.042,0,32.066,12.023,40.084,28.061
				c64.133,212.441,4.008,444.928-148.311,605.263l0,0c-8.018,28.059-20.041,56.116-36.074,92.19L2108.397,3224.921z"/>
			<path fill="#FFB300" d="M1924.012,3260.996c0-44.092,28.059-80.168,60.126-80.168c32.066,0,60.125,36.076,60.125,80.168
				s-28.059,80.167-60.125,80.167C1952.071,3341.163,1924.012,3305.088,1924.012,3260.996z"/>
			<path fill="#FFB300" d="M2216.622,3140.745c-12.024-12.024-16.032-32.067-12.024-52.108c4.009-16.032,12.024-36.073,28.06-48.101
				c32.065-32.067,76.158-36.075,100.209-16.033c12.024,12.024,16.032,32.066,12.024,52.108
				c-4.009,16.033-12.024,36.074-28.06,48.101c-20.041,20.041-40.084,28.06-64.135,28.06
				C2240.673,3156.778,2224.639,3152.77,2216.622,3140.745z"/>
			<path fill="#FFCA28" d="M1803.761,3597.698c28.059-20.042,60.125-44.093,92.191-76.159
				c68.143-208.436,240.502-368.77,456.952-412.861c16.033-4.008,32.066,4.01,40.083,16.034c8.02,12.024,8.02,24.05,4.01,36.075
				c-76.158,204.426-260.543,356.744-476.994,392.818c-32.066,28.06-64.135,56.115-92.191,76.157L1803.761,3597.698z"/>
		</g>
	</g>
</g>
<g>
	<path fill="#FFFFFF" stroke="#FFB300" stroke-width="15" stroke-miterlimit="10" d="M1392.755,2203.703v711.475h-177.539v-381.445
		c0-55.076-1.318-88.179-3.955-99.314c-2.637-11.13-9.889-19.557-21.753-25.271c-11.865-5.713-38.308-8.569-79.321-8.569h-17.578
		v-82.945c85.837-18.473,151.021-56.449,195.557-113.93H1392.755L1392.755,2203.703z"/>
</g>
</svg>
