<?xml version="1.0" encoding="utf-8"?>
<!-- Generator: Adobe Illustrator 16.0.0, SVG Export Plug-In . SVG Version: 6.00 Build 0)  -->
<!DOCTYPE svg PUBLIC "-//W3C//DTD SVG 1.1//EN" "http://www.w3.org/Graphics/SVG/1.1/DTD/svg11.dtd">
<svg version="1.1" id="Layer_1" xmlns="http://www.w3.org/2000/svg" xmlns:xlink="http://www.w3.org/1999/xlink" x="0px" y="0px"
	 width="2565.35px" height="2405.015px" viewBox="0 1657.653 2565.35 2405.015"
	 enable-background="new 0 1657.653 2565.35 2405.015" xml:space="preserve">
<g id="row_4">
</g>
<g id="row_3">
</g>
<g id="row_2">
</g>
<g id="row_1">
	<g id="quality">
		<path fill="#D87155" d="M1819.794,2471.35l212.443-521.086c4.008-12.025,4.008-28.06-4.008-40.084l-16.033-20.043h-20.043
			l-541.128,144.302l-412.86-364.761l-16.033-12.024h-16.033c-24.05,0-44.092,20.042-44.092,40.084l-32.067,561.17l-468.978,292.61
			c-16.033,8.017-20.042,24.05-20.042,40.082l4.009,28.06l537.12,216.451l260.543,793.655c4.008,20.041,24.05,32.066,40.084,32.066
			c16.032,0,36.073-12.025,40.083-28.059l252.525-681.422l501.045,60.125h4.01c16.033,0,32.065-8.017,36.074-24.05l12.025-24.051
			L1819.794,2471.35z"/>
		<g>
			<polygon fill="#F79E92" points="1523.177,2098.572 1430.984,2126.63 1322.759,2030.43 1663.469,2884.21 1843.845,2904.252 			"/>
			<polygon fill="#EA8C7A" points="1134.365,1862.078 1038.165,1777.903 1010.107,2307.007 974.031,2327.048 1362.843,3301.079 
				1523.177,2864.168 1535.202,2868.177 			"/>
		</g>
		<path fill="#C66547" d="M1290.691,3569.64l-68.142-204.427l44.092-16.033l28.06,80.167l52.107-144.301l44.092,16.034
			L1290.691,3569.64z M1418.958,3216.904l-44.092-16.034l140.293-376.785l188.394,24.05l-4.009,44.093l-152.317-20.042
			L1418.958,3216.904z M1992.154,2892.227l-48.1-80.166l40.084-24.051l48.1,80.167L1992.154,2892.227z M1050.19,2836.109
			l-20.042-56.117l-521.086-208.436l60.125-36.074l12.025,16.033l489.02,196.409l24.05,76.159L1050.19,2836.109z M673.404,2523.458
			l-24.05-40.084l312.652-196.409l24.05,40.083L673.404,2523.458z M1831.82,2327.048l-44.092-16.032l140.293-340.711l44.092,16.033
			L1831.82,2327.048z M1439.001,2122.622l-84.176-76.159l32.066-36.074l68.143,60.125l424.887-112.233l12.023,44.092
			L1439.001,2122.622z M1074.24,1801.953l-28.059-24.05h-24.05l4.009-80.167l80.167,72.149L1074.24,1801.953z"/>
		<g>
			<rect x="841.756" y="3581.664" fill="#FF7043" width="881.839" height="200.418"/>
			<rect x="681.422" y="3701.915" fill="#B71C1C" width="1202.508" height="320.669"/>
			<rect x="641.338" y="3982.5" fill="#3E2723" width="1282.675" height="80.168"/>
			<rect x="1002.09" y="3701.915" fill="#AF5D38" width="561.17" height="240.502"/>
			<rect x="1042.174" y="3741.999" fill="#FBE9E7" width="481.003" height="160.334"/>
		</g>
		<g>
			<path fill="#CC6748" d="M673.404,3541.581l-168.351-228.478c-40.084-124.259-40.084-252.525,0-372.776
				c4.009-12.025,16.032-24.05,32.066-28.06c16.033-4.009,28.059,4.01,40.083,12.025
				C713.488,3096.653,753.572,3333.146,673.404,3541.581z"/>
			<path fill="#CC6748" d="M456.952,3224.921c-16.032-36.075-28.059-64.134-36.074-92.192
				c68.143-208.435,24.051-436.91-116.242-601.254c-8.017-8.017-20.042-12.024-28.059-12.024c-20.042,0-32.067,12.024-40.084,28.06
				c-64.135,212.442-4.009,444.928,148.31,605.263l0,0c8.017,28.059,20.042,56.116,36.075,92.191L456.952,3224.921z"/>
			<path fill="#AF5D38" d="M581.213,3341.163c-32.067,0-60.126-36.075-60.126-80.167s28.059-80.168,60.126-80.168
				c32.065,0,60.125,36.076,60.125,80.168S613.279,3341.163,581.213,3341.163z"/>
			<path fill="#AF5D38" d="M312.652,3156.778c-20.042,0-44.092-12.024-64.134-28.06c-16.033-16.033-24.05-32.065-28.059-48.101
				c-4.008-20.041,0-40.083,12.024-52.108c24.05-24.05,68.143-16.033,100.209,16.034c16.033,16.033,24.05,32.065,28.059,48.101
				c4.01,20.041,0,40.084-12.024,52.108C340.71,3152.77,324.677,3156.778,312.652,3156.778z"/>
			<path fill="#AF5D38" d="M761.589,3597.698c-28.06-20.042-60.126-44.093-92.192-76.159
				c-68.144-208.436-240.502-368.77-456.953-412.861c-16.032-4.008-32.065,4.01-40.084,16.034
				c-8.017,12.024-8.017,24.05-4.008,36.075c76.158,204.426,260.543,356.744,476.994,392.818
				c32.066,28.06,64.135,56.116,92.192,76.158L761.589,3597.698z"/>
		</g>
		<g>
			<path fill="#F79E92" d="M1891.945,3541.581l168.352-228.478c40.084-124.259,40.084-252.525,0-372.776
				c-4.008-12.025-16.032-24.05-32.065-28.06c-16.033-4.009-28.06,4.01-40.084,12.025
				C1851.862,3096.653,1811.779,3333.146,1891.945,3541.581z"/>
			<path fill="#EA8C7A" d="M2108.397,3224.921c16.033-36.075,28.058-64.134,36.075-92.192
				c-68.144-208.435-24.051-436.91,116.242-601.254c8.017-8.017,20.041-12.024,28.059-12.024c20.042,0,32.066,12.024,40.084,28.06
				c64.133,212.442,4.008,444.928-148.311,605.263l0,0c-8.017,28.059-20.041,56.116-36.074,92.191L2108.397,3224.921z"/>
			<path fill="#AF5D38" d="M1924.012,3260.996c0-44.092,28.059-80.168,60.126-80.168c32.066,0,60.125,36.076,60.125,80.168
				s-28.059,80.167-60.125,80.167C1952.071,3341.163,1924.012,3305.088,1924.012,3260.996z"/>
			<path fill="#AF5D38" d="M2216.622,3140.745c-12.024-12.024-16.032-32.067-12.024-52.108c4.009-16.033,12.024-36.074,28.06-48.101
				c32.065-32.067,76.158-36.075,100.209-16.033c12.024,12.024,16.032,32.066,12.024,52.108
				c-4.009,16.033-12.024,36.074-28.06,48.101c-20.041,20.041-40.084,28.059-64.134,28.059
				C2240.673,3156.778,2224.639,3152.77,2216.622,3140.745z"/>
			<path fill="#CC6748" d="M1803.761,3597.698c28.059-20.042,60.125-44.093,92.191-76.159
				c68.143-208.436,240.502-368.77,456.953-412.861c16.033-4.008,32.066,4.01,40.083,16.034c8.019,12.024,8.019,24.05,4.009,36.075
				c-76.158,204.426-260.543,356.744-476.994,392.818c-32.066,28.06-64.135,56.116-92.191,76.158L1803.761,3597.698z"/>
		</g>
	</g>
</g>
<g>
	<path fill="#FFFFFF" stroke="#AF5D38" stroke-width="15" stroke-miterlimit="10" d="M1452.52,2511.979
		c26.951,9.092,47.021,23.965,60.205,44.633c13.184,20.668,19.774,69.104,19.774,145.314c0,56.573-6.446,100.471-19.336,131.686
		c-12.895,31.215-35.156,54.959-66.797,71.226c-31.641,16.268-72.221,24.403-121.729,24.403c-56.25,0-100.415-9.448-132.495-28.345
		c-32.08-18.897-53.174-42.037-63.281-69.435c-10.106-27.39-15.161-74.927-15.161-142.603v-56.25h177.539v115.575
		c0,30.763,1.827,50.317,5.494,58.668c3.659,8.35,11.789,12.523,24.389,12.523c13.769,0,22.853-5.273,27.246-15.82
		c4.395-10.547,6.592-38.082,6.592-82.617v-49.219c0-27.246-3.075-47.166-9.229-59.766c-6.152-12.594-15.236-20.874-27.246-24.829
		c-12.016-3.955-35.307-6.222-69.873-6.813v-103.271c42.188,0,68.26-1.607,78.223-4.834c9.957-3.221,17.139-10.251,21.533-21.094
		c4.395-10.836,6.592-27.83,6.592-50.978v-39.551c0-24.898-2.567-41.31-7.689-49.22c-5.13-7.909-13.115-11.864-23.951-11.864
		c-12.305,0-20.729,4.175-25.268,12.523c-4.546,8.351-6.813,26.147-6.813,53.395v58.446H1113.7v-60.645
		c0-67.964,15.524-113.887,46.582-137.77c31.05-23.875,80.42-35.814,148.095-35.814c84.664,0,142.088,16.541,172.266,49.624
		c30.172,33.083,45.265,79.046,45.265,137.892c0,39.818-5.424,68.582-16.261,86.297
		C1498.807,2481.17,1479.766,2497.34,1452.52,2511.979z"/>
</g>
</svg>
