<?xml version="1.0" encoding="utf-8"?>
<!-- Generator: Adobe Illustrator 21.1.0, SVG Export Plug-In . SVG Version: 6.00 Build 0)  -->
<svg version="1.1" id="Ebene_1" xmlns="http://www.w3.org/2000/svg" xmlns:xlink="http://www.w3.org/1999/xlink" x="0px" y="0px"
	 viewBox="0 0 2000 2000" style="enable-background:new 0 0 2000 2000;" xml:space="preserve">
<style type="text/css">
	.st0{fill:none;}
	.st1{fill:#404257;}
	.st2{fill:#009E9E;}
	.st3{fill:#383A4C;}
	.st4{fill:#00ADAD;}
</style>
<g>
	<path class="st0" d="M1,1c665.5,0,1330.9,0,1996.4-0.1c3.9,0,4.8,0.9,4.8,4.8c-0.1,663.9-0.1,1327.8,0,1991.7
		c0,3.9-0.9,4.8-4.8,4.8c-663.9-0.1-1327.8-0.1-1991.7,0c-3.9,0-4.8-0.9-4.8-4.8C1,1331.9,1,666.5,1,1z M211.6,1842.7
		c-0.1,23.1-0.2,46.2-0.1,69.2c0.2,41.5,32.3,73.4,73.8,73.5c86.9,0.1,173.9,0,260.8,0c5.4,0,10.7-0.5,16-1.7
		c34.4-7.6,57.7-36.6,57.7-72.4c0.1-108.1,0-216.2,0-324.3c0-1.2-0.1-2.4-0.2-3.6c0.1-1.2,0.2-2.4,0.2-3.6c0-66.3,0.1-132.6,0-198.9
		c-0.1-41.4-32.2-73.4-73.7-73.5c-87-0.1-173.9,0-260.9,0c-5.2,0-10.4,0.4-15.5,1.5c-34.2,7.3-58.2,36.5-58.2,71.5
		c-0.1,153.1,0,306.2,0,459.2C211.5,1840.6,211.6,1841.7,211.6,1842.7z M797,1508.3c-0.1,13.5-0.2,27.1-0.2,40.6
		c0,120.1-0.1,240.3,0,360.4c0,31.4,15.2,53.7,42.7,67.8c12,6.1,24.9,8.3,38.3,8.3c82.5-0.1,164.9,0,247.4,0c1.9,0,3.8,0,5.7-0.1
		c42-1.8,75.6-34.6,75.5-77.5c-0.6-170-0.2-339.9-0.2-509.9c0-2.1-0.1-4.2-0.2-6.2c0.1-0.9,0.2-1.7,0.2-2.6c0-90.6,0-181.2,0-271.8
		c0-2.6-0.1-5.2-0.4-7.8c-5.5-37.4-36.8-65.4-75.1-65.6c-86.1-0.4-172.2-0.7-258.2,0.1c-42.5,0.4-76,34.6-75.8,77
		c0.6,127.2,0.2,254.4,0.2,381.6C796.9,1504.5,797,1506.4,797,1508.3z M1786.3,1317.7c0.1-1,0.2-2.1,0.2-3.1c0-151,0.1-302,0-453
		c0-40.8-32.3-72.9-73.2-73c-84.9-0.1-169.8,0-254.6-0.1c-5.2,0-10.4,0.5-15.5,1.7c-34.6,7.7-57.7,36.8-57.7,73c0,163,0,326,0,489
		c0,1.7,0.1,3.5,0.2,5.2c-0.1,1.2-0.2,2.4-0.2,3.6c0,183.5,0,366.9,0,550.4c0,42.2,32,74,74.2,74.1c84.2,0.1,168.4,0,252.5,0
		c5.6,0,11.1-0.5,16.5-1.7c34.8-7.7,57.7-36.8,57.7-73.5c0-196,0-391.9,0-587.9C1786.5,1320.8,1786.3,1319.3,1786.3,1317.7z
		 M1562.7,170.3c0,3.1-0.3,6.3,0.1,9.4c0.4,3.3-0.7,5.5-3,7.7c-121.7,122.1-243.3,244.3-364.8,366.5c-2.9,2.9-4.3,3.4-7.7,0.4
		c-60.8-54.4-121.9-108.5-182.7-162.8C958.2,350,911,309.2,865.3,266.9c-2.2-2-3.4-2.2-5.4,0.2c-3.1,3.7-6.4,7.3-9.9,10.7
		C752.4,376,654.7,474.2,557,572.4c-91.7,92.2-183.5,184.3-275.1,276.5c-2.7,2.7-5.1,3.8-9,3.3c-16.6-2.2-33.2-1.3-49.7,1.8
		c-88.9,16.8-147.7,106-127.7,194.2c19.7,86.9,102.3,141.1,190,124.7c73.3-13.7,129.3-79.3,131.1-153.6c0.1-3.5,1.4-5.7,3.7-8
		c150.5-151.2,301-302.4,451.5-453.7c2.9-2.9,4.4-3.2,7.6-0.3c48.9,43.7,98.1,87.2,146.9,131c33.6,30.1,68.3,59,100.2,91
		c22.8,22.9,45.8,45.5,68.5,68.5c3.3,3.4,4.8,3,8-0.1c54.3-54.7,108.7-109.4,163-164c115.5-116,231-232.1,346.4-348.2
		c2.4-2.4,4.7-3.5,8.2-3.3c9.6,0.5,19.1-0.3,28.5-1.7c92.3-13.5,154.9-103.6,135-194.5c-17.7-81-91.5-135.2-173.9-127.9
		C1626.5,15.6,1561.9,86.5,1562.7,170.3z"/>
	<path class="st1" d="M1562.7,170.3c-0.8-83.8,63.7-154.7,147.4-162.2c82.4-7.4,156.2,46.9,173.9,127.9
		c19.9,90.9-42.6,181-135,194.5c-9.5,1.4-19,2.2-28.5,1.7c-3.4-0.2-5.8,0.9-8.2,3.3c-115.4,116.1-230.9,232.1-346.4,348.2
		c-54.4,54.6-108.8,109.3-163,164c-3.1,3.1-4.6,3.5-8,0.1c-22.7-23-45.8-45.6-68.5-68.5c-31.9-32-66.6-60.9-100.2-91
		c-48.8-43.8-98-87.3-146.9-131c-3.2-2.9-4.7-2.6-7.6,0.3c-150.4,151.3-300.9,302.5-451.5,453.7c-2.3,2.3-3.6,4.5-3.7,8
		c-1.8,74.3-57.8,139.9-131.1,153.6c-87.7,16.4-170.3-37.8-190-124.7c-20-88.2,38.7-177.5,127.7-194.2c16.5-3.1,33.1-4,49.7-1.8
		c3.9,0.5,6.4-0.6,9-3.3c91.7-92.2,183.4-184.4,275.1-276.5c97.7-98.2,195.4-196.4,293.1-294.6c3.4-3.4,6.8-7,9.9-10.7
		c2-2.4,3.2-2.2,5.4-0.2c45.7,42.4,92.8,83.2,139.3,124.7c60.8,54.4,121.9,108.5,182.7,162.8c3.3,3,4.8,2.4,7.7-0.4
		c121.5-122.3,243.2-244.4,364.8-366.5c2.3-2.3,3.4-4.4,3-7.7C1562.4,176.6,1562.7,173.4,1562.7,170.3z"/>
	<path class="st2" d="M1786.3,1313.7c0.1,1.6,0.2,3.1,0.2,4.7c0,196,0,391.9,0,587.9c0,36.7-22.9,65.8-57.7,73.5
		c-5.4,1.2-11,1.7-16.5,1.7c-84.2,0-168.4,0-252.5,0c-42.3,0-74.2-31.9-74.2-74.1c-0.1-183.5,0-366.9,0-550.4c0-1.2,0.1-2.4,0.2-3.6
		c16.2-2.2,32.4-4.5,48.5-6.7c14.1-1.9,28.3-3.9,42.4-5.8c12.1-1.6,24.2-3,36.4-4.5c10.6-1.3,21.2-2.7,31.8-3.8
		c11.1-1.2,22.3-2.2,33.4-3.3c13-1.3,26-2.7,39-4c9.1-0.9,18.2-1.5,27.3-2.2c15.6-1.3,31.2-3,46.8-3.9c13.3-0.8,26.5-1.8,39.8-2.4
		C1749.4,1315.7,1767.8,1314,1786.3,1313.7z"/>
	<path class="st3" d="M1206.1,1387.7c0.1,2.1,0.2,4.2,0.2,6.2c0,170-0.3,339.9,0.2,509.9c0.1,43-33.5,75.8-75.5,77.5
		c-1.9,0.1-3.8,0.1-5.7,0.1c-82.5,0-164.9,0-247.4,0c-13.4,0-26.3-2.2-38.3-8.3c-27.5-14.1-42.7-36.4-42.7-67.8
		c-0.1-120.1,0-240.3,0-360.4c0-13.5,0.1-27.1,0.2-40.6c1.8-0.4,3.8-0.7,5.5-1.4c22.7-9,45.8-16.7,68.9-24.6
		c36.8-12.6,73.9-24.2,111.3-35.1c34.5-10.1,69.1-19.6,103.9-28.4c29.1-7.3,58.3-14.1,87.6-20.8
		C1184.7,1391.5,1195.2,1388.2,1206.1,1387.7z"/>
	<path class="st4" d="M1786.3,1317.7c-18.5,0.3-36.9,2-55.3,2.9c-13.3,0.6-26.5,1.6-39.8,2.4c-15.6,0.9-31.2,2.6-46.8,3.9
		c-9.1,0.8-18.2,1.4-27.3,2.2c-13,1.2-26,2.7-39,4c-11.1,1.1-22.3,2.1-33.4,3.3c-10.6,1.2-21.2,2.5-31.8,3.8
		c-12.1,1.5-24.3,2.9-36.4,4.5c-14.2,1.9-28.3,3.9-42.4,5.8c-16.2,2.2-32.4,4.5-48.5,6.7c-0.1-1.7-0.2-3.5-0.2-5.2
		c0-163,0-326,0-489c0-36.2,23.1-65.3,57.7-73c5.1-1.1,10.3-1.7,15.5-1.7c84.9,0,169.8-0.1,254.6,0.1c40.9,0.1,73.1,32.2,73.2,73
		c0.1,151,0,302,0,453C1786.5,1315.6,1786.3,1316.7,1786.3,1317.7z"/>
	<path class="st1" d="M1206.1,1391.7c-10.9,0.5-21.3,3.9-31.9,6.3c-29.2,6.7-58.5,13.5-87.6,20.8c-34.8,8.8-69.4,18.3-103.9,28.4
		c-37.3,11-74.5,22.6-111.3,35.1c-23.1,7.9-46.2,15.6-68.9,24.6c-1.7,0.7-3.7,0.9-5.5,1.4c-0.1-1.9-0.2-3.8-0.2-5.7
		c0-127.2,0.4-254.4-0.2-381.6c-0.2-42.4,33.3-76.6,75.8-77c86.1-0.8,172.2-0.5,258.2-0.1c38.3,0.2,69.6,28.2,75.1,65.6
		c0.4,2.6,0.4,5.2,0.4,7.8c0,90.6,0,181.2,0,271.8C1206.2,1389.9,1206.1,1390.8,1206.1,1391.7z"/>
	<path class="st4" d="M211.6,1842.7c-0.1-1-0.2-2.1-0.2-3.1c0-153.1,0-306.2,0-459.2c0-35,23.9-64.2,58.2-71.5
		c5.1-1.1,10.3-1.5,15.5-1.5c87,0,173.9,0,260.9,0c41.5,0,73.7,32.1,73.7,73.5c0.1,66.3,0,132.6,0,198.9c0,1.2-0.1,2.4-0.2,3.6
		c-14.9,5.7-28.9,13.4-43.2,20.3c-22.1,10.7-44,21.8-65.6,33.6c-21,11.4-41.8,23-62.4,35.1c-31.1,18.4-61.7,37.5-91.4,58.1
		c-16.8,11.6-33.6,23.1-50,35.2C274.1,1789.9,242.3,1815.6,211.6,1842.7z"/>
	<path class="st2" d="M211.6,1838.7c30.6-27.1,62.5-52.8,95.3-77.1c16.4-12.1,33.2-23.6,50-35.2c29.7-20.6,60.3-39.7,91.4-58.1
		c20.5-12.1,41.4-23.8,62.4-35.1c21.6-11.7,43.5-22.9,65.6-33.6c14.3-6.9,28.3-14.6,43.2-20.3c0.1,1.2,0.2,2.4,0.2,3.6
		c0,108.1,0.1,216.2,0,324.3c0,35.8-23.3,64.8-57.7,72.4c-5.3,1.2-10.6,1.7-16,1.7c-86.9,0-173.9,0-260.8,0
		c-41.5,0-73.6-32-73.8-73.5C211.4,1884.8,211.6,1861.8,211.6,1838.7z"/>
</g>
</svg>
