<?xml version="1.0" encoding="utf-8"?>
<!-- Generator: Adobe Illustrator 16.0.0, SVG Export Plug-In . SVG Version: 6.00 Build 0)  -->
<!DOCTYPE svg PUBLIC "-//W3C//DTD SVG 1.1//EN" "http://www.w3.org/Graphics/SVG/1.1/DTD/svg11.dtd" [
	<!ENTITY ns_extend "http://ns.adobe.com/Extensibility/1.0/">
	<!ENTITY ns_ai "http://ns.adobe.com/AdobeIllustrator/10.0/">
	<!ENTITY ns_graphs "http://ns.adobe.com/Graphs/1.0/">
	<!ENTITY ns_vars "http://ns.adobe.com/Variables/1.0/">
	<!ENTITY ns_imrep "http://ns.adobe.com/ImageReplacement/1.0/">
	<!ENTITY ns_sfw "http://ns.adobe.com/SaveForWeb/1.0/">
	<!ENTITY ns_custom "http://ns.adobe.com/GenericCustomNamespace/1.0/">
	<!ENTITY ns_adobe_xpath "http://ns.adobe.com/XPath/1.0/">
]>
<svg version="1.1" id="Layer_1" xmlns:x="&ns_extend;" xmlns:i="&ns_ai;" xmlns:graph="&ns_graphs;"
	 xmlns="http://www.w3.org/2000/svg" xmlns:xlink="http://www.w3.org/1999/xlink" x="0px" y="0px" width="419.529px"
	 height="141.73px" viewBox="0 0 419.529 141.73" enable-background="new 0 0 419.529 141.73" xml:space="preserve">
<metadata><?xpacket begin="﻿" id="W5M0MpCehiHzreSzNTczkc9d"?>
<x:xmpmeta xmlns:x="adobe:ns:meta/" x:xmptk="Adobe XMP Core 5.3-c011 66.145661, 2012/02/06-14:56:27        ">
   <rdf:RDF xmlns:rdf="http://www.w3.org/1999/02/22-rdf-syntax-ns#">
      <rdf:Description rdf:about=""
            xmlns:xmp="http://ns.adobe.com/xap/1.0/"
            xmlns:xmpGImg="http://ns.adobe.com/xap/1.0/g/img/">
         <xmp:CreatorTool>Adobe Illustrator CS6 (Windows)</xmp:CreatorTool>
         <xmp:CreateDate>2018-01-04T16:33:29+01:00</xmp:CreateDate>
         <xmp:MetadataDate>2018-01-04T16:33:29+01:00</xmp:MetadataDate>
         <xmp:ModifyDate>2018-01-04T16:33:29+01:00</xmp:ModifyDate>
         <xmp:Thumbnails>
            <rdf:Alt>
               <rdf:li rdf:parseType="Resource">
                  <xmpGImg:width>256</xmpGImg:width>
                  <xmpGImg:height>64</xmpGImg:height>
                  <xmpGImg:format>JPEG</xmpGImg:format>
                  <xmpGImg:image>/9j/4AAQSkZJRgABAgEASABIAAD/7QAsUGhvdG9zaG9wIDMuMAA4QklNA+0AAAAAABAASAAAAAEA&#xA;AQBIAAAAAQAB/+4ADkFkb2JlAGTAAAAAAf/bAIQABgQEBAUEBgUFBgkGBQYJCwgGBggLDAoKCwoK&#xA;DBAMDAwMDAwQDA4PEA8ODBMTFBQTExwbGxscHx8fHx8fHx8fHwEHBwcNDA0YEBAYGhURFRofHx8f&#xA;Hx8fHx8fHx8fHx8fHx8fHx8fHx8fHx8fHx8fHx8fHx8fHx8fHx8fHx8fHx8f/8AAEQgAQAEAAwER&#xA;AAIRAQMRAf/EAaIAAAAHAQEBAQEAAAAAAAAAAAQFAwIGAQAHCAkKCwEAAgIDAQEBAQEAAAAAAAAA&#xA;AQACAwQFBgcICQoLEAACAQMDAgQCBgcDBAIGAnMBAgMRBAAFIRIxQVEGE2EicYEUMpGhBxWxQiPB&#xA;UtHhMxZi8CRygvElQzRTkqKyY3PCNUQnk6OzNhdUZHTD0uIIJoMJChgZhJRFRqS0VtNVKBry4/PE&#xA;1OT0ZXWFlaW1xdXl9WZ2hpamtsbW5vY3R1dnd4eXp7fH1+f3OEhYaHiImKi4yNjo+Ck5SVlpeYmZ&#xA;qbnJ2en5KjpKWmp6ipqqusra6voRAAICAQIDBQUEBQYECAMDbQEAAhEDBCESMUEFURNhIgZxgZEy&#xA;obHwFMHR4SNCFVJicvEzJDRDghaSUyWiY7LCB3PSNeJEgxdUkwgJChgZJjZFGidkdFU38qOzwygp&#xA;0+PzhJSktMTU5PRldYWVpbXF1eX1RlZmdoaWprbG1ub2R1dnd4eXp7fH1+f3OEhYaHiImKi4yNjo&#xA;+DlJWWl5iZmpucnZ6fkqOkpaanqKmqq6ytrq+v/aAAwDAQACEQMRAD8A9U4q7FXYq7FXYq7FXYq7&#xA;FXYq7FXYq7FXYq7FXYq7FXYq7FXYq7FXYq7FVsssUMbSyuscaCrO5CqB7k4gWiUhEWTQSG5/MDyZ&#xA;bsVk1e3JGx9NjL+MYbLhp5no66fbGljzyR+G/wBzUH5heS5vsavAK/zkx/8AEwuJ08x0RHtjSS5Z&#xA;I/d96a2ms6PeECzvre5J6ejKj/8AEScrMJDmHMx6nFP6ZRl7iCjMi3uxV2KuxV2KuxV8m6X5i1O9&#xA;0+OQ3s7ErwlBlY/ENjXfv1zeYqIunzLtWGXBnlDilw8xueR/FIsatqgAAvJwBsAJH/rk+AdzrhqM&#xA;n86XzLf6X1b/AJbZ/wDka/8AXHgHcn8zk/nS+Zd+l9W/5bZ/+Rr/ANceAdy/mcn86XzLv0vq3/Lb&#xA;P/yNf+uPAO5fzOT+dL5lPpJdVbyLb6kt5NWLU57eRvUepElvC61Neg9NvvyoAeJVdHYylkOjGTiO&#xA;2SQ5nrGJ/QkP6X1b/ltn/wCRr/1y3gHc678zk/nS+ZZ5+Tet3jeZ5rS5uZJY7m2fgsjlv3iMrClS&#xA;f2eWYmsgOCw9F7NaqX5gxkSRKP2j8F7Vmre7dirsVdirxb85dbvF8zQ2dtcyRR21svqJG5X95IzM&#xA;a0P8vHNpo4Dgs97wntNqpfmBGJIEY/af2U8j8wec9ViV7O2vpzIwpLIJX+GvYb9clmmBsA5PYfZu&#xA;WdZsspcPSNnfzPl3d/u59c/5xmj1G40jWtVvLma4WWeK1hEru/H0ULvTkT19ZfuzXZXsQ9pypLxz&#xA;/nJLzZPpmg6do1lcPBd6hMZ5miYq4ggHQkbjk7j/AIE5biG6C+eP8Qa9/wBXK6/5Hyf81ZfQYu/x&#xA;Br3/AFcrr/kfJ/zVjQV9Pf8AOP8A5ql1zyMttdStLe6TM1vK7ks7Rt+8iYk+zFP9jmPkFFkHpmVp&#xA;S3zFr1loOkT6ld7xxCiRj7TudlRfmcnjxmcqDi63Vw0+I5Jch9p7nz15m83a15iuzNfzH0QSYbVD&#xA;SKMeAXuf8o75ucWGMBs+aa7tHLqZXM7dB0CS5a4LsVdir6Q/L6yks/JulRSkmR4fWYtWv74mQA18&#xA;A9M0molcy+odj4jDSwB51fz3eJ+dNT1OPzbq6JdzKi3coVVkYADmaAAHNphiOAbdHg+08+QanIBI&#xA;/UeqTfpfVv8Altn/AORr/wBct4B3OD+ZyfzpfMs6882/nO+/Kvy0fLv16e/9UNcNZNJ6pj4SfbKH&#xA;lStOuarJQyF9K7JJOlxk7mnjeq3n5oaOqNq1xrenpISsbXT3cKsR1ClyoP0Yii7BAQ+a/Ok8qQw6&#xA;xqUs0jBI40uZ2ZmJoAoDVJOGgrfla/8ARujauaRz7pXs4/qP4Zk6edGnm/aTQ+Ji8UD1Q5/1f2fr&#xA;Zbma8G7FXYq7FXomgWAvPyd1sAVe3vjcJ7emkBb/AITlmFklWce79b02kw8fZeTynfyEf0PO8zXm&#xA;U98i34sPN+k3JPFRcLG7eCzfumP3PlWeNwIdh2Tm8PU45f0q+e36X0pmjfU0o81eY7Ty9os+pXFG&#xA;ZRxt4a0MkrfZQfrPtlmLGZyoOF2hrY6bEckvgO8t+VvMdp5h0aHUrf4S3wzw1qY5V+0h/WPbHLjM&#xA;JUV0GtjqcQyR+I7im2Vua+UfzZ82Cbzdq4tm5TNO0XMdFSL90p+ZCZsxPhgIjm8nh7M/M6qefJ/d&#xA;iWw/ncO3y2+LzQkk1O5PU5Q9S+vPyM0r9HflnpPJeMt56l3J7+rIeB/5Fhcxsh3ZBnuQS+Qvzt8y&#xA;/p78w9RaNuVrp5Fhb9xSAkSEfOUuR7Zk4xQYlgeTQ7FXqv8Azjn5lOmeeG0uRqW2swmKnb1oQZIi&#xA;fo5qPnleUbJD6kzHZPIPzz1V2vNN0pWIjjja6kXsWclEJ/1Qjffmy0MNiXivavUHihj6VxfoH3F5&#xA;bme8inOheT/MevRSzaVZG4ihYJI/OONQxFaAyMlTTwyrJmjDmXO0nZufUAnHHiA8wPvKMuPy288Q&#xA;V56TKadfTaOTtX9hmyI1OM9W+fYmrjzxn7D9xQcXlDzGb2C1n026g9eVIg8kMiqObBa1Ip3yRzRq&#xA;7DRHs7PxiJhIWa5F9LRRRwxJFGOMcahUUdgooBmjJt9UjERAA5B81+eP+Uw1n/mLl/4kc3mD6B7n&#xA;yztX/Gsn9cpJlrgPWdZ/MG48k/lPol9a2q3N5dqLa39QkRoxV35sBu1OPTb55p8sbyF9Q7HP+CY/&#xA;6r5w8weY9b8w6lJqWsXb3d3Jtzc7KvUKiiioo8FFMkBTsHo/5dfmF+V3kyJbhdIv77W2WkuoyrBV&#xA;aihWFPUPpr+J7ntkJRJSC+kD5e0Aih0y0IPUehH/AM05RxFMogijyYV+cGnafa+UIzbWsMBF1EoM&#xA;capReD7fCBtmZo5Ez3PR5n2kwwhphwxA9Q5D3vE82jwbNPyjggn84xxzRrKnoSng4DCoA7HMXVmo&#xA;O99nYCWqAIv0l7l+iNJ/5YoP+RSf0zVcZ730D8tj/mx+QautKtJdMurCOJIobqKSN1RQo/eJwJIH&#xA;tiJmwUZNPE45QAAEgR89ny5JG8cjRuOLoSrKexBoRm/fJCCDRaR2R1dDR1IZSOxG4xUGjYfU2n6h&#xA;Fd6XbahyCxTwJPyJooV0D1qfCuaCUaNPrmHMJ4xPoYg/Y8D/ADF84t5j1o+gx/RlpWO0XcBv5pSP&#xA;Fu3tTNvpsPBHzL51212l+Zy7f3ceX6/i3+XPnF/LmsgTsf0ZeER3i/y/yyj/AFa7+2Opw8cfML2L&#xA;2kdNl3/u5c/1/B7vrGqQ6dol7qpIaGztpbotWqlY4y/UeIGacDen0oGxYfC0ssksjyyMWkkYs7Hq&#xA;STUnMtgBToYpJpUiiXlJIwRFHUsxoBil916NpyaZo9jpqU4WVvFbrTpSJAg/4jmISzS/zx5iXy55&#xA;S1XWSQHtIGaCvQzN8EQ38ZGUYxFlXxG7vI7SOxZ3JZmO5JO5JzLYL7a3nubiK2t42luJ3WOGJBVm&#xA;dzxVVA6kk4qp9MVROl6jc6ZqVpqNq3G5s5o54W8HjYMv4jEhX3Lo+qWuraTZ6nanlbXsMc8R78ZF&#xA;DAH3Fd8xCKZvHPzttZY/M9tcEfup7RQjf5SO3IfRyH35s9CfQR5vA+1OMjURl0MfuJeeZmvNMi8q&#xA;+fNe8tRyw2Bikt5m9R4JlLLzpTkOJVgSAO+U5cEZ83Z9n9rZtKCIUYnoWZ2X563AoL3SUfxeGUrT&#xA;/Ysrf8SzFloB0LvMXtZL+PH8iy7y7+aHlbWplthK9ldvskNyAoY+CuCyn5Eg5j5NLOO/MO60Xb2n&#xA;znhvhl3S/XyZdmM7p80+eP8AlMNZ/wCYuX/iRzeYPoHufK+1f8ayf1ykmWuA9H84yeS0/KnyyfNk&#xA;d/LZGQegNN9ISerwk+16pUceNc1GS/ENPp/Y/wDimP8AqvLyfyEJJA80gHsP0fQffg9Xk7LZr/kA&#xA;v/f1f9y7H1eS7PrvMZk8/wDztk4eUrcVp6l9Gv8AySlP8My9Gan8HQe0uOUtLt/DIE+78F4dm2fO&#xA;2b/k7/ymsX/GCb9QzF1n927/ANmv8bH9Uves1D6I7FXzZ580/wCoecNWtwKL9YaVR4LNSUD7nzd4&#xA;JXAF8t7Ww+Hqskf6V/Pf9KQ5c65nGofmA5/L/TvL1q5F0yNFfyfywq7BIwf8taV9tu+YkdP+8Mi7&#xA;/N2wfyUMEfqqpe69h8WD5lugSvWtZSwj4JRrlx8C9lH8xynLl4eXN3nY3ZB1MuKW2Mfb5D9Ke6Z+&#xA;bk7flRrPlTUZWfUQiRaZOannbySqJYmPiiluP+Sads1pj6rfQ4REY0BQDy7JpZV+Vmkfpb8w9Bsy&#xA;Kp9bSeQeKW9Z2B+YjpkZmgofZ+YrN4d/zk95l9HTNL8uQvR7pzeXSg7+nFVIgfZnLH5rl2IdUF87&#xA;5cxel/8AOP3lo6x5/gvJE5Wujo13IT09T7EI+fNuQ/1chkNBISX83fLQ8vef9Us4142s8n1u07D0&#xA;7j46L7I/JPowwNhSw7JIfU//ADjtrcl75DXT52rLpsrpGD19CVi6V/2XMD2GU5oEUe9qxamM5ygP&#xA;qhV/EWzDzz5Pt/M+kfViwivICZLOcioViKFWpvxbv9/bHBm8OV9HE7V7Njq8XDykPpP46F4Rq/lD&#xA;zLpErx3unzKqmnrIpeI+4kWq5toZoy5F881PZufCanA+/p80ny1wnYq7FXuP5RebbnV9Lm02+kMl&#xA;3p/H05WNWeFqgcvEoRSvhTNVrMIibHIvf+znaMs2M45m5Q+0fseU+eP+Uw1n/mLl/wCJHNhg+ge5&#xA;4/tX/Gsn9cpJlrgMr/N7/wAk75T/AOYhf+TUuamf95J9P7I/xTH/AFXlOqaFaWvlHQtZjeQ3Wpz3&#xA;0VwjFTGq2phCcAACCfVPKpOIO7sVXzp5dstDk0VbR5XGo6RZajP6pU0luULOqcVWiA9K1PvjE2r7&#xA;XzEZvLP+cj5Hj8gQSIeLpqNuynwISQjLcJqTXlgJxMTuC8asbpLu0iuF2Ei1I8D0I+g5uoS4hb5V&#xA;rtKcGaWM9D9nRn35O/8AKaxf8YJv1DMfWf3btfZr/Gx/VL3rNQ+iOxV4j+dmn+h5mt7xVot3bLyP&#xA;i8TFT/wvHNropXCu54H2ow8OoEv50ftH4DzzMx5p2KoLUdQa39OC3jM99cMI7aBRVmZjRdhv1yrL&#xA;lER5u37J7Klqp2dsY5n9A8/uYXfLdpeTpeKyXaOyTo4oyupoykHoQRSmYBN7vo2PHGERGIqIUMDN&#xA;2KvXv+cZ9J+s+dbzUGWqafZtwbwlmdUX/hA+V5TskPpvMdk+N/zd8y/4h8/6peI3K1gk+qWm9R6V&#xA;v8FR7O3J/pzKgKDEsOySHYq7FW0RndUXdmIVR7nbCxlIRFnkHvH5N6oNH8y21iW4217F9VYE7cwO&#xA;UZ+fIcfpzJ1OL937nhux+0SdcZHllJ/Z+p7zf3kVlY3F5NX0raJ5pKdeMalj+AzVRFmnus2QY4GZ&#xA;5RBPyYbbfnJ5Mm/vGubb/jLFX/k2ZMyjo5h0eP2l0sufFH3j9VomTzp+WWoj/SLm0nqDX6xA3y/3&#xA;bHkRhyx5W2y7U7Py/VKB98f1h5l+Zb+SHurRvLQjEpD/AFz6uCsNNuFBQDl1+zmdpvEo8Tynbh0h&#xA;lH8vV9a5eTC8ynRPRvyOjkPmW9kH90tkyt4cmljK/wDETmFrvpHven9lQfHkenB+kMU88f8AKYaz&#xA;/wAxcv8AxI5kYPoHudP2r/jWT+uUky1wHtUP5f6N52/LnQLDVZriGG2AnRrVkRi1GShMiSClG8M0&#xA;2aVZC+odjj/BMf8AVam/ITyVPoen6NNPfSWumyXEtu5ljEha6KGTkViAI/dCm2V+IXZU8g/NuTyf&#xA;p/nFtEutN1G5/QlnZ6fbzRahDCrQx2yOlUazmPKkm/xb9dsshdIL6nzHZPKf+clP/JeR/wDbQg/4&#xA;hJlmLmgvnzynfcZXsnPwyfHF/rAfEPpH6s2OnnvTyntNouKAzDnHY+79h+96/wDk7/ymsX/GCb9Q&#xA;yWs/u3T+zX+Nj+qXvWah9EdirzX88bD1NEsL4CptrgxE9wsyV/XGMztDL1EPLe1WG8UJ/wA2VfP+&#xA;x4xmzeFQOq6pDp8HNvilbaKPxPifbK8mQRDs+y+zJaqdcoDmfx1Z5/zj95Bl1O/fzvrCc44XZNKj&#xA;cbNKNmmof2Y/sp/lV/lzVZshL6Tp8EMUBCAqIa/5yL/Lr0Zx5y02OkMxWLV41FOMhosc/wDstlb3&#xA;p4nBil0bSHhWWodir6S/5xg0n0PLGq6oy0a9u1hU9ylulQflymYZRlO7IPQvzI8y/wCG/JOrasjc&#xA;biKEx2h7+vKfTjP0M1foyERZSXxX1zKYIjTdPutR1C20+0T1Lq7lSCBOlXkYKor8ziSr0b/oXX8y&#xA;v98Wv/SQv9Mh4oTTR/5x1/MoAn0LU+wuF/pj4oWmEeX7J31cCRSptqtIpHRl2ANehrmThjcnS9va&#xA;nwtLLvn6fnz+y2bW88tvPHcQtwlhdZI2HUMpqD9+ZxF7PnUJmJEhzD3Xzx5jhn/LOTUYTT9JQxJG&#xA;oPQzEc1/2K8hmpwY6y13PoXautEtAcg/jA+3n+l4Nm3fO3Yq7FXYq9x/Jvy9Lp+gy6lcJwm1NlaM&#xA;Eb+jHUIf9kWY/KmarWZLlQ6Pf+zWjOPCckuc/uHJ5T54/wCUw1n/AJi5f+JHNhg+ge54/tX/ABrJ&#xA;/XKSZa4D0Tzt/jL/AJVR5Y/wr+kfrnqD1/0X6/q+lwk+36HxceVOu1c1GSvENvp/Y/8AimP+q8x/&#xA;5D1/39X/AHMcHp8nZbsQ179P/paf9P8A1r9L/B9Z+v8AqfWfsDh6nq/H9jjSvamTFdEPurMNmxL8&#xA;zvI0vnTy2ujxXi2TLcR3HrMhkFEVl48Qy/z+OShKigvK4f8AnF7U4ZUlj8xxB42DKfqrdQa/78y0&#xA;Zqa8uETiYy5EU9A8lfldc+XNcXU5NQS4VY3j9JYyp+MDepY9MtzarjjVOg7M7BOmzeJx8Qo9HoOY&#xA;b0jsVSfzd5eXzBoFxpZkELTFGjmI5cGRw1aVHYUy3Dk4JW4PaOj/ADOE47q63+Lzk/kTeUNNYjr2&#xA;/cN/zXmZ+fHc8yPZOX+qD/S/tSKT/nGS/ur5Z73zEjxlx6qpbENwruqEyEDbpmNLOSbL1em0sMEB&#xA;CAoB7lpunWWmafb6fYxCCztY1igiXoqKKDMclyW9Q0+z1GxuLC9iE9pdRtFPE3RkcUIxBV4Pcf8A&#xA;OLVwbiU2/mBFty7eisluWcJX4QxEgBNOu2XeKxpT/wChWb//AKmKL/pGb/qph8Zaexfl/wCUV8pe&#xA;VLPQvWFy9sZGluAvDm0kjPXjU0oGA+jKpSs2yCVfmr+X+o+d9Ks9Mt9STT7eCYzzhozJ6jBeMfRk&#xA;oF5NhhKkEPMv+hWb/wD6mKL/AKRm/wCqmWeMimReQP8AnH7/AAz5ptNcvNVS/Wz5tDbrCY/3jKVV&#xA;iS7fZrXp1yMslhID2LKkuxV5Lqf5ELceYtW1a01JLePU5zcCAxFihf4nFQwG7lj0zLw6kQHJ0na/&#xA;ZMtXwgS4RHyU/wDlRN3/ANXiP/kQ3/NeXfnx3Ol/0Jy/1Qf6X9qbah+WWuy+Trby9DqMMv1W6a4R&#xA;5FeNeLKaJt6h2Z2P05XHVR4zKujm5uwsx0scAmDwyvex8OveWFXX5Q+d4SRHbRXIHeKZB/ycMeZQ&#xA;1mM9XQ5PZzVx5REvcR+mkvk/LjzvHTlpMxr/AClG/wCIscmNTj73GPYurH+TP2KsH5Y+eZiAulsg&#xA;O9ZJIkoP9k4wHVYx1ZQ7C1cv4PtH62Z+U/yYMNzHd+YZUlWMhlsIasrEdPUcgbf5IG/jmNl1tiou&#xA;97P9meGQlnINfwj9J/R9r1RVVVCqAqqKKo2AA7DNe9eBTzHXvybudU1m91FdUSJbuZ5hGYSxXma0&#xA;rzFcz8esEYgVyeT1fs1LLllPjA4jfL9qA/5UTd/9XiP/AJEN/wA15L8+O5x/9Ccv9UH+l/a9N8ua&#xA;S2kaHZ6Y0gma1jEZlA4hqEmtKnMHJPikS9XotP4OGOO74QmOQcp5F58/ID/Ffmu+1/8AT31L676X&#xA;+jfVPV4+lCkX2/WjrX06/Zy2OShSKf/Z</xmpGImg:image>
               </rdf:li>
            </rdf:Alt>
         </xmp:Thumbnails>
      </rdf:Description>
      <rdf:Description rdf:about=""
            xmlns:xmpTPg="http://ns.adobe.com/xap/1.0/t/pg/"
            xmlns:stDim="http://ns.adobe.com/xap/1.0/sType/Dimensions#"
            xmlns:xmpG="http://ns.adobe.com/xap/1.0/g/">
         <xmpTPg:MaxPageSize rdf:parseType="Resource">
            <stDim:w>419.529297</stDim:w>
            <stDim:h>141.730469</stDim:h>
            <stDim:unit>Pixels</stDim:unit>
         </xmpTPg:MaxPageSize>
         <xmpTPg:NPages>1</xmpTPg:NPages>
         <xmpTPg:HasVisibleTransparency>False</xmpTPg:HasVisibleTransparency>
         <xmpTPg:HasVisibleOverprint>False</xmpTPg:HasVisibleOverprint>
         <xmpTPg:PlateNames>
            <rdf:Seq>
               <rdf:li>Cyan</rdf:li>
               <rdf:li>Magenta</rdf:li>
               <rdf:li>Yellow</rdf:li>
               <rdf:li>Black</rdf:li>
            </rdf:Seq>
         </xmpTPg:PlateNames>
         <xmpTPg:SwatchGroups>
            <rdf:Seq>
               <rdf:li rdf:parseType="Resource">
                  <xmpG:groupName>Default Swatch Group</xmpG:groupName>
                  <xmpG:groupType>0</xmpG:groupType>
               </rdf:li>
            </rdf:Seq>
         </xmpTPg:SwatchGroups>
      </rdf:Description>
      <rdf:Description rdf:about=""
            xmlns:dc="http://purl.org/dc/elements/1.1/">
         <dc:format>image/svg+xml</dc:format>
      </rdf:Description>
      <rdf:Description rdf:about=""
            xmlns:xmpMM="http://ns.adobe.com/xap/1.0/mm/"
            xmlns:stEvt="http://ns.adobe.com/xap/1.0/sType/ResourceEvent#"
            xmlns:stRef="http://ns.adobe.com/xap/1.0/sType/ResourceRef#">
         <xmpMM:DocumentID>xmp.did:11433E0263F1E711ADF6F2836229AD35</xmpMM:DocumentID>
         <xmpMM:InstanceID>xmp.iid:11433E0263F1E711ADF6F2836229AD35</xmpMM:InstanceID>
         <xmpMM:OriginalDocumentID>xmp.did:5C467FA2BAECE7118086DE85214622A2</xmpMM:OriginalDocumentID>
         <xmpMM:History>
            <rdf:Seq>
               <rdf:li rdf:parseType="Resource">
                  <stEvt:action>saved</stEvt:action>
                  <stEvt:instanceID>xmp.iid:5C467FA2BAECE7118086DE85214622A2</stEvt:instanceID>
                  <stEvt:when>2017-12-29T18:06:39+01:00</stEvt:when>
                  <stEvt:softwareAgent>Adobe Illustrator CS6 (Windows)</stEvt:softwareAgent>
                  <stEvt:changed>/</stEvt:changed>
               </rdf:li>
               <rdf:li rdf:parseType="Resource">
                  <stEvt:action>saved</stEvt:action>
                  <stEvt:instanceID>xmp.iid:11433E0263F1E711ADF6F2836229AD35</stEvt:instanceID>
                  <stEvt:when>2018-01-04T16:33:29+01:00</stEvt:when>
                  <stEvt:softwareAgent>Adobe Illustrator CS6 (Windows)</stEvt:softwareAgent>
                  <stEvt:changed>/</stEvt:changed>
               </rdf:li>
            </rdf:Seq>
         </xmpMM:History>
         <xmpMM:DerivedFrom rdf:parseType="Resource">
            <stRef:instanceID>xmp.iid:10433E0263F1E711ADF6F2836229AD35</stRef:instanceID>
            <stRef:documentID>xmp.did:10433E0263F1E711ADF6F2836229AD35</stRef:documentID>
            <stRef:originalDocumentID>xmp.did:5C467FA2BAECE7118086DE85214622A2</stRef:originalDocumentID>
         </xmpMM:DerivedFrom>
      </rdf:Description>
   </rdf:RDF>
</x:xmpmeta>
                                                                                                    
                                                                                                    
                                                                                                    
                                                                                                    
                                                                                                    
                                                                                                    
                                                                                                    
                                                                                                    
                                                                                                    
                                                                                                    
                                                                                                    
                                                                                                    
                                                                                                    
                                                                                                    
                                                                                                    
                                                                                                    
                                                                                                    
                                                                                                    
                                                                                                    
                                                                                                    
                           
<?xpacket end="w"?>
	</metadata>
<g id="Layer_2">
</g>
<g id="Layer_1_1_">
	<g>
		<path fill="#404257" d="M360.608,63.25l0.015-8.128l-0.038-0.076l12.264-8.489l-12.212-0.021l0.014-8.205l26.446,0.043
			l0.024,8.205l-12.072,8.453l12.059,0.021l-0.014,8.242L360.608,63.25z"/>
		<path fill="#404257" d="M379.823,74.691l-2.479-0.004l-0.017,10.685l-6.641-0.011l0.018-10.685l-2.635-0.005l-0.018,10.914
			l-7.479-0.012l0.031-19.157l26.484,0.043l-0.031,19.119l-7.251-0.012L379.823,74.691z"/>
		<path fill="#404257" d="M378.891,109.454l0.011-6.907l-18.355-0.028l0.014-8.205l18.356,0.028l0.011-6.906l8.128,0.014
			l-0.035,22.021L378.891,109.454z"/>
	</g>
	<g>
		<line fill="none" x1="41.729" y1="60.034" x2="41.637" y2="60.034"/>
		<polyline fill="none" points="49.235,74.745 49.235,60.034 41.729,60.034 		"/>
		<line fill="none" x1="41.637" y1="60.034" x2="40.898" y2="60.034"/>
		<line fill="none" x1="30.545" y1="38.634" x2="30.545" y2="38.562"/>
		<polygon fill="none" points="141.962,53.013 154.689,71.684 164.89,60.817 168.953,41.402 115.066,41.402 123.169,80.582 		"/>
		<rect x="41.729" y="38.041" fill="#00AEAD" width="48.396" height="3.361"/>
		<polygon fill="#00AEAD" points="41.729,41.402 41.729,38.041 30.545,38.041 30.545,38.562 32.013,41.402 		"/>
		<polygon fill="#00AEAD" points="31.884,41.402 32.013,41.402 30.545,38.562 30.545,38.634 		"/>
		<polygon fill="#404257" points="30.545,38.634 30.545,41.402 31.884,41.402 		"/>
		<polygon fill="#00AEAD" points="41.729,60.034 49.235,60.034 49.235,74.745 67.291,109.7 71.435,109.7 71.435,60.034 
			90.125,60.034 90.125,41.402 41.729,41.402 		"/>
		<path fill="#00AEAD" d="M42.093,41.646c-0.332-0.108-0.533-0.268-0.892-0.253c-0.236,0.009-0.471,0.009-0.707,0.009
			c-0.494,0-0.988,0-1.482,0c-1.525,0-3.051,0-4.576,0c-0.808,0-1.615,0-2.423,0l9.624,18.632h0.092V41.402c0,0-0.099,0-0.276,0"/>
		<polygon fill="#404257" points="30.545,41.402 30.545,60.034 40.898,60.034 31.884,41.402 		"/>
		<polygon fill="#00AEAD" points="32.013,41.402 31.884,41.402 40.898,60.034 41.637,60.034 		"/>
		<polygon fill="#404257" points="49.235,109.7 64.925,109.7 49.235,77.268 		"/>
		<polygon fill="#00AEAD" points="49.235,77.268 64.925,109.7 67.291,109.7 49.235,74.745 		"/>
		<polygon fill="#00AEAD" points="183.115,41.402 168.953,41.402 164.89,60.817 		"/>
		<polygon fill="#00AEAD" points="114.393,38.144 91.676,38.144 92.349,41.402 115.066,41.402 		"/>
		<polygon fill="#00AEAD" points="186.175,38.144 169.634,38.144 168.953,41.402 183.115,41.402 		"/>
		<polygon fill="#00AEAD" points="141.962,53.013 123.169,80.582 115.066,41.402 92.349,41.402 106.442,109.7 119,109.7 
			154.689,71.684 		"/>
		<polygon fill="#404257" points="191.673,41.402 192.351,38.144 186.175,38.144 183.115,41.402 		"/>
		<polygon fill="#404257" points="129.158,109.493 129.261,109.597 142.065,90.082 154.766,109.597 154.869,109.493 154.766,109.7 
			177.482,109.7 191.673,41.402 183.115,41.402 164.89,60.817 160.754,80.582 154.689,71.684 119,109.7 129.158,109.7 		"/>
		<path fill="#00AEAD" d="M268.766,109.7l-11.572-33.324c-3.571,11.404-7.214,22.83-10.59,33.324H268.766z"/>
		<polygon fill="#404257" points="243.882,38.041 217.24,38.041 216.073,41.402 245.049,41.402 		"/>
		<path fill="#404257" d="M216.073,41.402L192.357,109.7l23.542,0.104l3.305-9.5h22.819l3.305,9.396h1.275
			c3.376-10.494,7.019-21.92,10.59-33.324l-12.145-34.974H216.073z M225.502,82.027l5.06-14.559l5.062,14.559H225.502z"/>
		<path fill="#00AEAD" d="M268.669,59.828c-1.032,7.951,3.201,18.483,13.732,20.651c0,0,3.099,0.723,9.499,1.651
			c6.505,0.826,6.712,0.931,6.712,0.931c5.783,0.723,5.681,3.511,5.37,4.956c-0.827,3.924-5.577,2.995-9.707,2.788
			c-8.156-0.518-19.102-2.168-19.102-2.168l-4.337,21.373c0,0,12.7,2.479,21.167,2.686c8.054,0.103,18.069,0.516,24.782-4.544
			c6.505-5.163,8.88-11.255,10.117-19.515c1.344-9.811-4.854-20.445-18.274-22.82c0,0-3.201-0.516-7.125-1.239
			c-7.125-1.032-8.261-1.548-8.261-1.548c-1.344-0.517-2.788-2.065-2.168-4.337c0.824-2.995,3.199-2.479,9.809-2.065
			c5.267,0.413,17.761,1.962,17.761,1.962l3.866-17.187h-45.158C271.767,46.246,269.725,52.055,268.669,59.828z"/>
		<path fill="#00AEAD" d="M322.512,41.402l0.78-3.464c0,0-14.354-2.479-22.098-2.893c-7.848-0.309-15.901,0.104-22.511,5.268
			c-0.467,0.356-0.906,0.721-1.331,1.089H322.512z"/>
		<rect x="333.311" y="41.402" fill="#00AEAD" width="22.304" height="68.298"/>
		<rect x="333.311" y="38.041" fill="#00AEAD" width="22.304" height="3.361"/>
	</g>
</g>
<g id="Layer_3" display="none">
	<rect x="48.333" y="26" display="inline" fill="#00AEAD" width="316.87" height="73.168"/>
</g>
<path fill="none" d="M39.577,41.084c0.129,0.027,0.273,0.132,0.392,0.204c0.244,0.148,0.479,0.302,0.731,0.438
	c0.426,0.23,0.865,0.363,1.33,0.437"/>
<path fill="none" d="M39.187,41.552c0.441,0.03,0.977-0.091,1.398-0.203c0.375-0.1,0.762-0.29,1.086-0.079"/>
<path fill="none" d="M39.249,42.037c-0.012-0.352,0.19-0.686,0.375-0.976c0.166-0.26,0.414-0.391,0.735-0.306
	c0.332,0.088,0.56,0.345,0.594,0.684c0.03,0.3-0.055,0.752-0.407,0.785c-0.477,0.045-0.936-0.363-0.938-0.828"/>
<path fill="none" d="M39.937,41.287c0.375,0,0.685-0.042,1,0.172"/>
<path fill="none" d="M39.468,40.881c0.376,0.298,0.789,0.544,1.225,0.762c0.359,0.179,0.868,0.448,1.275,0.426"/>
<path fill="none" d="M40.796,41.209c0.257,0.213,0.577,0.39,0.874,0.566c0.261,0.155,0.592,0.357,0.908,0.34"/>
<path fill="none" d="M42.218,41.209c0.439,0.293,1.046,0.607,1.609,0.547"/>
<path fill="none" d="M41.999,41.302c0.324,0.104,0.702,0.286,1.063,0.172"/>
<path fill="none" d="M41.452,41.365c0.294-0.001,0.572-0.07,0.858-0.113c0.287-0.043,0.626-0.079,0.892-0.168"/>
<path fill="none" d="M41.249,41.49c0.362,0,0.69-0.061,1.036-0.146c0.369-0.09,0.824-0.01,1.202,0.005
	c0.418,0.017,0.93,0.088,1.34,0"/>
<path fill="none" d="M42.577,41.474c-0.34-0.079-0.717-0.001-1.063-0.063c-0.234-0.042-0.504-0.121-0.734-0.14"/>
<path fill="none" d="M40.593,41.381c0.151,0.015,0.31,0.016,0.469,0.016"/>
<path fill="none" d="M37.781,40.662c0.119,0.079,0.188,0.223,0.282,0.333c0.116,0.137,0.26,0.268,0.399,0.383
	c0.245,0.202,0.598,0.325,0.804,0.569c0.197,0.234,0.235,0.482,0.328,0.746c0.08,0.228,0.241,0.451,0.436,0.593
	c0.335,0.245,0.759,0.34,1.172,0.345c0.602,0.006,1.089-0.377,1.535-0.738c0.466-0.377,0.897-0.794,1.356-1.181
	c0.349-0.293,0.806-0.875,0.843-1.347c0.044-0.567-0.44-0.953-0.883-1.212c-0.566-0.331-1.217-0.264-1.842-0.168
	c-0.284,0.043-0.566,0.101-0.851,0.143c-0.322,0.047-0.654,0.028-0.979,0.069c-0.843,0.105-1.688,0.251-2.535,0.312
	c-0.43,0.03-0.864,0.117-1.286,0.201c-0.351,0.069-0.727,0.133-1.055,0.278c-0.367,0.162-0.731,0.377-0.993,0.687
	c-0.389,0.459-0.847,1.306-0.531,1.917c0.3,0.58,1.194,1.08,1.829,1.133"/>
<path fill="none" d="M35.671,41.427c-0.16-0.31,0.231-0.798,0.452-0.984c0.4-0.338,0.958-0.412,1.469-0.357
	c0.472,0.05,0.962,0.438,1.051,0.906c0.09,0.469,0.016,1.042-0.304,1.412c-0.179,0.208-0.368,0.27-0.636,0.272
	c-0.453,0.005-0.907,0.012-1.34-0.124c-0.623-0.194-1.181-0.448-1.735-0.791c-0.399-0.247-0.666-0.56-1.003-0.867"/>
<path fill="none" d="M45.999,45.177c-0.137-0.004-0.337-0.043-0.452-0.113c0.185-0.351,0.883-0.525,1.224-0.625
	c0.5-0.147,1.082-0.384,1.603-0.371"/>
<rect x="32.718" y="40.943" fill="#00AEAE" width="12.313" height="0.844"/>
<rect x="44.098" y="40.448" fill="#00AEAE" width="45.917" height="1.833"/>
<rect x="40.452" y="38.052" fill="#00AEAE" width="2" height="14.625"/>
<rect x="41.015" y="50.24" fill="#00AEAE" width="1.875" height="9.75"/>
<rect x="94.932" y="39.624" fill="#00AEAE" width="19.333" height="2.583"/>
<rect x="92.932" y="40.374" fill="#00AEAE" width="2.083" height="1.583"/>
<rect x="92.598" y="41.207" fill="#00AEAE" width="0.417" height="0.25"/>
<rect x="92.421" y="41.334" fill="#00AEAE" width="0.234" height="0.063"/>
<rect x="92.437" y="41.271" fill="#00AEAE" width="0.125" height="0.203"/>
<rect x="92.374" y="41.287" fill="#00AEAE" width="0.047" height="0.109"/>
<rect x="92.374" y="41.287" fill="#00AEAE" width="0.141" height="0.156"/>
<rect x="92.531" y="41.162" fill="#00AEAE" width="0.344" height="0.375"/>
<rect x="114.124" y="41.318" fill="#00AEAE" width="0.906" height="0.188"/>
<rect x="169.093" y="41.334" fill="#00AEAE" width="13.891" height="0.094"/>
<path fill="#00AEAE" d="M169.031,41.442c0.042,0.002,0.084,0.002,0.125,0.001c0.048-0.189-0.143-0.123-0.154,0.015
	c0.04-0.056,0.007-0.09,0.018-0.146C169.011,41.353,169.024,41.401,169.031,41.442z"/>
<path fill="none" d="M183.124,41.256c-0.051,0.087-0.119,0.136-0.188,0.203"/>
<rect x="182.843" y="41.334" fill="none" width="0.272" height="0.068"/>
<rect x="182.984" y="41.256" fill="none" width="0.109" height="0.188"/>
<rect x="182.937" y="41.256" fill="none" width="0.156" height="0.203"/>
<rect x="180.452" y="39.959" fill="#00AEAD" width="2.641" height="1.453"/>
<rect x="278.202" y="40.865" fill="#00AEAD" width="44" height="0.75"/>
<rect x="277.515" y="41.302" fill="#00AEAD" width="1.188" height="0.563"/>
<rect x="333.327" y="41.271" fill="#00AEAD" width="22.266" height="0.281"/>
<rect x="216.156" y="41.287" fill="#404257" width="7.734" height="0.297"/>
<rect x="216.093" y="41.365" fill="#404257" width="0.172" height="0.281"/>
<rect x="223.421" y="41.131" fill="#404257" width="21.391" height="0.688"/>
<rect x="244.718" y="41.365" fill="#404257" width="0.313" height="0.188"/>
<rect x="183.202" y="41.334" fill="#404257" width="8.406" height="0.141"/>
<rect x="183.115" y="41.402" fill="#404257" width="0.415" height="0.072"/>
<rect x="183.202" y="41.381" fill="#404257" width="0.047" height="0.094"/>
<rect x="191.484" y="41.256" fill="#404257" width="0.156" height="0.156"/>
<rect x="191.484" y="41.209" fill="#404257" width="0.156" height="0.203"/>
<rect x="30.546" y="41.334" fill="#404257" width="1.281" height="0.141"/>
<rect x="31.765" y="41.402" fill="#404257" width="0.119" height="0.072"/>
<rect x="32.046" y="41.177" fill="#00AEAD" width="0.844" height="0.406"/>
<rect x="31.937" y="41.271" fill="#00AEAD" width="0.125" height="0.219"/>
<rect x="31.906" y="41.193" fill="#00AEAD" width="0.313" height="0.234"/>
<rect x="66.827" y="107.427" fill="#00AEAD" width="0.583" height="2.25"/>
<rect x="65.536" y="106.907" fill="#00AEAD" width="2.146" height="1.958"/>
<rect x="64.827" y="105.532" fill="#00AEAD" width="2.042" height="2.666"/>
<rect x="64.119" y="104.302" fill="#00AEAD" width="2.771" height="2.313"/>
<rect x="62.452" y="101.094" fill="#00AEAD" width="2.938" height="2.896"/>
<rect x="61.202" y="95.094" fill="#00AEAD" width="1.688" height="6.313"/>
<rect x="60.661" y="96.323" fill="#00AEAD" width="0.979" height="3.938"/>
<rect x="60.161" y="94.573" fill="#00AEAD" width="0.563" height="3.5"/>
<rect x="59.244" y="93.907" fill="#00AEAD" width="1.646" height="3.271"/>
<rect x="58.557" y="92.094" fill="#00AEAD" width="0.792" height="3.083"/>
<rect x="58.307" y="90.689" fill="#00AEAD" width="0.875" height="2.875"/>
<rect x="56.827" y="88.002" fill="#00AEAD" width="1.604" height="4.625"/>
<rect x="56.077" y="86.283" fill="#00AEAD" width="0.813" height="3.583"/>
<rect x="55.244" y="85.191" fill="#00AEAD" width="0.875" height="3.521"/>
<rect x="54.577" y="84.295" fill="#00AEAD" width="0.875" height="3.459"/>
<rect x="53.994" y="81.992" fill="#00AEAD" width="1.208" height="4.146"/>
<rect x="53.327" y="80.659" fill="#00AEAD" width="0.896" height="4.146"/>
<rect x="53.515" y="83.242" fill="#00AEAD" width="0.313" height="1.834"/>
<rect x="52.202" y="79.691" fill="#00AEAD" width="1.167" height="3.291"/>
<rect x="51.452" y="78.17" fill="#00AEAD" width="1" height="2.938"/>
<rect x="50.557" y="76.899" fill="#00AEAD" width="1.104" height="2.958"/>
<rect x="49.869" y="74.945" fill="#00AEAD" width="1.042" height="2.896"/>
<rect x="49.244" y="74.404" fill="#00AEAD" width="0.833" height="2.125"/>
<rect x="41.14" y="57.677" fill="#00AEAD" width="1.375" height="2.344"/>
<rect x="40.734" y="58.115" fill="#00AEAD" width="0.875" height="1.281"/>
<rect x="40.452" y="57.302" fill="#00AEAD" width="0.938" height="1.438"/>
<rect x="39.671" y="56.365" fill="#00AEAD" width="1.281" height="0.938"/>
<rect x="39.327" y="55.677" fill="#00AEAD" width="1.063" height="0.938"/>
<rect x="38.859" y="54.896" fill="#00AEAD" width="0.875" height="0.75"/>
<rect x="38.515" y="54.177" fill="#00AEAD" width="1.063" height="0.813"/>
<rect x="38.015" y="52.615" fill="#00AEAD" width="0.813" height="1.375"/>
<rect x="37.984" y="52.021" fill="#00AEAD" width="0.625" height="1.406"/>
<rect x="37.577" y="51.959" fill="#00AEAD" width="0.781" height="1"/>
<rect x="37.171" y="51.365" fill="#00AEAD" width="0.938" height="0.906"/>
<rect x="36.827" y="50.584" fill="#00AEAD" width="0.719" height="0.781"/>
<rect x="36.515" y="50.021" fill="#00AEAD" width="0.75" height="0.875"/>
<rect x="36.421" y="49.24" fill="#00AEAD" width="0.438" height="1.094"/>
<rect x="36.077" y="49.146" fill="#00AEAD" width="0.719" height="0.719"/>
<rect x="35.952" y="48.709" fill="#00AEAD" width="0.625" height="0.844"/>
<rect x="35.734" y="48.396" fill="#00AEAD" width="0.531" height="0.844"/>
<rect x="34.89" y="45.959" fill="#00AEAD" width="0.219" height="1.469"/>
<rect x="34.765" y="45.802" fill="#00AEAD" width="0.313" height="0.938"/>
<rect x="34.515" y="45.802" fill="#00AEAD" width="0.344" height="0.75"/>
<rect x="34.265" y="45.709" fill="#00AEAD" width="0.563" height="0.5"/>
<rect x="34.171" y="45.302" fill="#00AEAD" width="0.5" height="0.656"/>
<rect x="33.89" y="44.74" fill="#00AEAD" width="0.656" height="0.625"/>
<rect x="33.765" y="44.552" fill="#00AEAD" width="0.563" height="0.594"/>
<rect x="33.702" y="44.396" fill="#00AEAD" width="0.375" height="0.719"/>
<rect x="169.64" y="40.74" fill="#00AEAD" width="12.875" height="0.75"/>
<rect x="169.64" y="41.115" fill="#00AEAD" width="1" height="0.375"/>
<rect x="169.39" y="40.865" fill="#00AEAD" width="0.875" height="1.375"/>
</svg>
