<?xml version="1.0" encoding="utf-8"?>
<!-- Generator: Adobe Illustrator 16.0.0, SVG Export Plug-In . SVG Version: 6.00 Build 0)  -->
<!DOCTYPE svg PUBLIC "-//W3C//DTD SVG 1.1//EN" "http://www.w3.org/Graphics/SVG/1.1/DTD/svg11.dtd">
<svg version="1.1" id="Layer_1" xmlns="http://www.w3.org/2000/svg" xmlns:xlink="http://www.w3.org/1999/xlink" x="0px" y="0px"
	 width="3686px" height="3000px" viewBox="0 0 3686 3000" enable-background="new 0 0 3686 3000" xml:space="preserve">
<g>
	<defs>
		<rect id="SVGID_1_" width="3686" height="3000"/>
	</defs>
	<clipPath id="SVGID_2_">
		<use xlink:href="#SVGID_1_"  overflow="visible"/>
	</clipPath>
	<path clip-path="url(#SVGID_2_)" fill="#1A2035" d="M2099.278,1925.903c-116.116,0-189.883-44.815-202.387-122.957
		c-18.798-117.487-1.289-152.616,19.952-180.912l0.43-0.569c12.079-16.109,33.795-26.114,56.672-26.114
		c20.643,0,39.863,8.232,54.121,23.185c19.822,20.789,28.863,52.531,26.871,94.341c-1.502,31.544-1.967,53.528-1.971,68.633
		c6.987-0.236,14.586-0.396,22.479-0.396c73.027,0,110.408,12.59,124.988,42.096c5.592,11.315,11.754,34.506-9.81,62.705
		c-18.692,24.445-47.702,38.963-79.59,39.83C2107.371,1925.844,2103.437,1925.903,2099.278,1925.903"/>
	<path clip-path="url(#SVGID_2_)" fill="#1A2035" d="M1267.822,1979.461c-37.649,0-53.747-16.39-60.622-30.141
		c-3.35-6.699-8.878-13.901-15.982-20.826c-3.933-3.834-9.394-6.786-16.237-8.786c-40.414-11.804-94.987-50.173-83.771-95.039
		c2.915-11.657,10.654-28.259,45.962-63.026c15.248-15.016,35.325-23.287,56.532-23.287c1.579,0,3.163,0.045,4.746,0.141
		c39.258,2.354,65.411,16.334,77.731,41.56c9.281,19.004,7.427,38.396,2.733,53.772c2.776-0.064,5.689-0.173,8.717-0.325
		c3.988-0.199,7.797-0.292,11.438-0.292c56.291,0,80.859,23.372,91.56,42.979c8.921,16.345,9.88,35.609,2.634,52.851
		c-7.329,17.442-21.972,30.399-40.173,35.546C1329.092,1971.372,1294.818,1979.461,1267.822,1979.461"/>
	<path clip-path="url(#SVGID_2_)" fill="#31438C" d="M2018.741,1819.869c0,0,190.796-18.346,143.097,44.029
		c-12.272,16.049-31.593,25.072-51.789,25.62c-51.973,1.413-163.538-5.823-177.374-92.298c-18.12-113.246,0-135.896,13.589-154.015
		c13.59-18.119,77.007-27.179,72.478,67.947C2014.211,1806.279,2018.741,1819.869,2018.741,1819.869"/>
	<path clip-path="url(#SVGID_2_)" fill="#31438C" d="M1196.286,1774.671c-12.518-0.75-24.752,3.993-33.688,12.792
		c-13.734,13.526-33.331,34.399-36.23,45.995c-3.964,15.854,26.754,42.113,58.772,51.465c11.702,3.418,22.641,9.108,31.37,17.617
		c7.958,7.757,16.932,18.231,23.103,30.574c10.033,20.065,71.913,5.565,103.618-3.399c15.502-4.383,23.305-22.025,15.588-36.166
		c-7.393-13.549-25.821-26.03-69.378-23.852c-90.596,4.529-54.358-27.18-54.358-27.18S1278.349,1779.586,1196.286,1774.671"/>
	<path clip-path="url(#SVGID_2_)" fill="#1A2035" d="M3484.565,1860.312c-2.718,0-5.449-0.253-8.118-0.752l-3.316-0.619
		l-7.724-2.845l-804.203-296.525l61.374-80.242l814.09-19.397l10.215-0.238l4.101,0.766c7.755,1.449,26.733,7.457,35.475,31.911
		c2.488,6.96,4.05,15.234,4.773,25.295c1.013,14.08,0.446,32.863-1.679,55.83c-4.516,48.769-15.599,112.582-28.926,166.536
		c-7.076,28.644-14.151,51.927-21.031,69.204c-4.411,11.078-8.781,19.762-13.36,26.551
		C3512.562,1856.057,3496.027,1860.312,3484.565,1860.312"/>
	<path clip-path="url(#SVGID_2_)" fill="#232F4A" d="M3483.79,1820.24l-4.56-1.68l-753.311-277.76l16.78-21.94l794.92-18.94
		l6.021-0.14C3573.41,1505.34,3513.561,1825.801,3483.79,1820.24"/>
	<path clip-path="url(#SVGID_2_)" fill="#232F4A" d="M3479.23,1818.561L2725.92,1540.8l16.78-21.939l794.92-18.941
		C3485.53,1511.72,3433.459,1792.51,3479.23,1818.561"/>
	<path clip-path="url(#SVGID_2_)" fill="#FFFFFF" d="M3479.23,1818.561l-107.102-39.49l-36.17-13.34l-112.419-41.45l-66.89-24.659
		l-64.01-23.602l-106.58-39.3l-260.141-95.92l16.78-21.939l129.17-3.08l70.41-1.681l125.45-2.979h0.01l93.52-2.231h0.01
		l144.359-3.439l92.041-2.2h0.01l139.94-3.331C3485.53,1511.72,3433.459,1792.51,3479.23,1818.561"/>
	<path clip-path="url(#SVGID_2_)" fill="#1A2035" d="M3591.23,1517.67c-0.721-10.07-2.28-18.34-4.771-25.3
		c-8.74-24.45-27.72-30.46-35.479-31.91l-4.101-0.77l-10.21,0.24l-814.09,19.4l-61.38,80.24l804.21,296.529l7.72,2.84l3.32,0.621
		c2.67,0.5,5.399,0.75,8.12,0.75c11.46,0,27.99-4.25,41.67-24.521c4.57-6.79,8.939-15.479,13.359-26.55
		c6.881-17.28,13.95-40.561,21.03-69.21c13.32-53.95,24.41-117.771,28.92-166.53C3591.68,1550.53,3592.24,1531.75,3591.23,1517.67
		 M3483.79,1820.24l-4.56-1.68l-753.311-277.76l16.78-21.94l794.92-18.94l6.021-0.14
		C3573.41,1505.34,3513.561,1825.801,3483.79,1820.24"/>
	<path clip-path="url(#SVGID_2_)" fill="#1A2035" d="M2986.061,1636.72c1.449-13.39-0.271-27.2-7.771-41.649
		c-19.109-36.829-53.759-35.37-106.419-79.289l70.41-1.682c3.099,3.82,6.56,7.601,10.39,11.29c34.709,33.38,65.32,24.95,99.15,55.79
		c33.46,30.51,38.02,70.25,40.639,93.15c0.061,0.56,0.131,1.12,0.182,1.689L2986.061,1636.72z"/>
	<path clip-path="url(#SVGID_2_)" fill="#1A2035" d="M3280.03,1720.35c-19.78,10.7-38.82,5.891-56.49,3.931l-66.89-24.659
		c29.59-26.461,48.979-23.691,61.6-50.211c11.98-25.19,12.24-65.039-11.32-83.99c-23.06-18.56-48.07-0.29-90.979-18.76
		c-21.54-9.271-37.511-23.459-48.21-35.539l93.519-2.231h0.011c6.721,2.091,14.489,4.671,23.541,7.91
		c38.989,13.94,58.47,20.91,76.89,35.46c35.899,28.37,46.13,64.521,47.76,70.65C3318.52,1656.84,3313.27,1702.36,3280.03,1720.35"/>
	<path clip-path="url(#SVGID_2_)" fill="#1A2035" d="M3437.29,1591.811c-14.87,7.5-34.79,15.59-48.09,38.51
		c-9.65,16.64-8.05,27.719-9.97,92.52c-0.811,27.061-4.712,43.811-7.101,56.23l-36.17-13.34c2.771-11.7,4.75-23.48,5.47-32.5
		c1.211-15.021-1.529-19.971-0.85-46.341c1-39.329,6.02-50.63,8.39-55.351c5.931-11.829,9.91-10.379,25.24-30.35
		c21.16-27.59,31.74-41.379,28.29-50.369c-6.93-18.08-42.04-17.351-96.87-45.37l92.04-2.2h0.01c13.62,7.039,26.58,16.17,36.93,26.02
		C3436.04,1549.1,3436.939,1570.189,3437.29,1591.811"/>
	<path clip-path="url(#SVGID_2_)" fill="#1A2035" d="M609.08,2639.259c-57.784,0-115.975-10.931-168.285-31.613
		c-55.182-21.817-105.391-57.193-149.229-105.144c-45.219-49.432-77.082-110.624-92.143-176.952
		c-20.656-90.936-45.2-278.465,22.514-512.646c80.482-278.323,264.694-541.509,547.52-782.244
		c14.921-12.68,28.495-23.993,41.525-34.601c11.884-9.675,22.29-17.987,31.819-25.419c32.288-25.257,64.276-48.684,95.018-69.592
		c62.289-42.465,124.34-78.219,184.388-106.241c66.789-31.175,132.878-53.617,196.426-66.693
		c46.092-9.538,92.022-14.379,136.469-14.379c15.747,0,31.599,0.608,47.11,1.809c63.402,4.93,125.251,20.15,183.845,45.243
		c47.399,20.267,93.444,47.51,136.839,80.957c38.333,29.479,75.085,64.241,109.195,103.288c2.604,2.975,5.193,5.978,7.768,9.003
		c-1.517-24.969-1.42-48.266,0.299-69.822c5.888-73.369,43.781-139.861,103.964-182.454c6.926-4.903,14.413-8.737,22.234-11.377
		c3.3-1.12,6.655-2.14,9.891-3.04c6.353-1.698,12.273-2.979,18.02-3.915c8.021-1.34,16.459-2.037,24.886-2.037
		c16.431,0,32.894,2.595,48.937,7.713c196.848,63.056,354.812,153.538,469.553,268.953
		c85.177,85.678,145.133,183.022,178.206,289.329c32.919,105.882,20.681,221.936-33.575,318.412
		c-76.173,135.552-200.915,207.208-360.734,207.208c-185.938,0-371.678-94.542-441.005-133.941
		c-13.851,10.404-28.411,20.347-43.589,29.763c1.44,77.778,14.048,150.375,22.581,191.214c32.743,0.774,59.5,4.981,79.651,12.539
		l1.075,0.402l1.053,0.458c13.585,5.895,25.127,11.674,35.288,17.666c59.677,35.232,59.416,74.069,53.949,94.084
		c-10.967,40.162-55.967,58.461-93.135,58.463c-20.917,0.003-38.968-5.828-52.201-16.86c-14.529-12.107-39.485-22.034-53.062-23.421
		c-42.026,29.13-79.44,43.885-111.334,43.889c-45.909,0.005-70.104-29.905-73.156-57.699c-3.555-32.357,18.688-61.358,52.889-68.958
		c17.829-3.964,27.4-13.172,28.223-16.188c-0.02,0-0.089-0.902-0.902-2.731c-9.985-22.457-24.414-77.111-42.992-162.767
		c-112.54,37.488-247.313,56.462-401.579,56.464c-58.963,0-121.21-2.807-185.01-8.343c-2.974-0.225-6.651-0.521-10.207-0.906
		c-1.557,0.58-2.829,1.055-4.387,1.635c-7.071,7.836-14.932,16.735-22.896,26.105c-16.107,18.95-27.188,33.416-34.799,44.238
		c46.758,11.09,85.153,24.4,99.844,60.135c4.543,10.992,5.99,22.744,4.262,34.854l-1.04,7.281l-3.288,6.58
		c-18.46,36.917-52.33,57.251-95.377,57.251c-45.998,0.003-92.594-23.891-111.195-34.621c-4.742-2.735-9.207-5.868-13.415-9.37
		l-3.932-3.271c-1.223-0.873-3.563-2.165-6.726-2.165c-2.756,0-6.155,0.889-9.911,2.583
		c-70.876,44.418-125.583,66.017-167.199,66.023c-50.564,0.009-76.104-32.185-78.984-64.095
		c-3.627-40.197,26.281-78.876,66.676-86.221l0.949-0.162c111.659-17.858,170.943-79.278,201.413-129.495
		c-107.139-17.22-183.582-35.969-205.895-41.688c-24.077,1.084-127.425,9.521-222.343,74.806
		c-45.402,31.214-91.523,84.729-129.878,150.694c-24.572,42.192-40.426,80.371-45.244,99.503
		c-21.859,86.715,36.044,183.589,104.653,227.15c23.268,14.746,49.852,21.346,71.891,24.161
		c-7.649-92.617,6.797-160.856,43.128-203.255c34.651-40.441,77.815-44.806,94.764-44.806c5.649,0,9.654,0.437,11.541,0.697
		c52.648,7.026,98.913,37.371,133.585,87.719c60.461,87.795,74.353,219.083,60.843,276.274
		c-17.635,74.718-60.182,134.866-123.035,173.94C748.792,2621.743,682.052,2639.257,609.08,2639.259"/>
	<path clip-path="url(#SVGID_2_)" fill="#3F51B5" d="M2742.787,1543.596c-43.486,77.369-99.975,125.611-162.575,153.152
		c-252.175,111.071-603.462-112.611-603.462-112.611c-25.05,21.291-52.275,40.09-81.129,56.578c-1.359,0.77-2.673,1.54-4.032,2.31
		c-1.948,135.532,32.026,262.911,32.026,262.911s63.417-4.529,99.654,9.06c12.006,5.209,22.017,10.237,30.306,15.129
		c85.478,50.463-14.586,82.534-39.364,61.878c-27.179-22.649-77.007-40.769-99.655-31.709
		c-117.775,86.066-144.955,13.59-104.186,4.531c40.768-9.061,77.007-40.77,58.887-81.538
		c-14.722-33.113-41.403-159.042-50.915-205.02c-186.537,76.327-420.367,80.631-616.145,63.645
		c-2.356-0.182-4.666-0.363-7.022-0.589c-9.376-0.815-18.708-1.677-27.903-2.628c-9.332,9.966-24.824,26.816-40.995,45.842
		c-37.462,44.075-78.411,99.792-54.267,107.81c51.277,11.823,102.509,20.203,111.931,43.124c1.405,3.397,1.903,7.111,1.313,11.234
		c-28.854,57.709-106.541,23.509-136.982,7.202c-6.205-3.353-11.958-7.384-17.44-11.823c-9.784-7.836-33.566-21.425-67.539-4.438
		c-208.372,131.364-199.312,9.06-149.484,0c180.694-28.9,243.206-158.726,261.053-210.048
		c-157.275-21.698-267.485-51.323-267.485-51.323c-36.828,0-151.658,13.092-253.217,82.941
		c-59.567,40.949-109.078,106.27-143.369,165.247c-26.59,45.66-44.029,87.471-50.009,111.207
		c-27.36,108.534,41.403,223.818,124.298,276.455c4.757,2.989,9.558,5.753,14.451,8.243
		c62.602,32.072,132.904,24.009,132.904,24.009c-41.447-267.259,92.046-248.822,92.046-248.822
		c3.669,0.498,7.293,1.132,10.826,1.902h0.046c129.054,28.312,161.351,240.533,145.679,306.805
		c-46.204,195.731-272.922,220.828-423.583,161.261c-57.167-22.604-101.06-59.25-132.452-93.586
		c-40.361-44.12-68.174-98.161-81.401-156.415c-41.901-184.453-84.889-705.519,555.219-1250.364
		c13.272-11.28,26.862-22.649,40.769-33.974c10.464-8.516,20.792-16.806,31.074-24.823c31.619-24.733,62.466-47.337,92.635-67.857
		c62.33-42.49,121.671-76.328,178.067-102.646c66.18-30.893,128.284-51.413,186.402-63.372
		c61.288-12.683,118.228-15.854,170.955-11.777c62.331,4.846,118.726,19.976,169.506,41.72
		c47.246,20.202,89.463,46.249,127.016,75.194c39.409,30.305,73.609,63.87,102.736,97.21c23.418,26.771,43.666,53.497,60.744,78.411
		c47.246,68.853,70.802,124.026,73.111,129.553c-1.585-5.21-3.125-10.419-4.62-15.492v-0.045
		c-36.918-125.205-47.02-215.031-41.901-279.445c4.848-60.201,36.42-115.103,85.886-149.71c2.944-2.084,6.251-3.669,9.648-4.802
		c2.537-0.86,5.073-1.631,7.52-2.31c4.575-1.223,9.015-2.174,13.182-2.854c16.625-2.763,33.702-1.495,49.873,3.262
		c0.952,0.271,1.948,0.543,2.899,0.86c426.8,136.71,570.305,374.39,618.274,528.585
		C2801.9,1355.11,2791.165,1457.575,2742.787,1543.596"/>
	<path clip-path="url(#SVGID_2_)" fill="#31438C" d="M499.532,2320.368c62.602,32.071,132.905,24.008,132.905,24.008
		c-41.448-267.259,92.046-248.821,92.046-248.821c3.669,0.498,7.293,1.131,10.826,1.901h0.045v0.045
		C735.354,2097.501,781.784,2541.695,499.532,2320.368"/>
	<path clip-path="url(#SVGID_2_)" fill="#31438C" d="M2014.211,1992.002c-27.179-22.648-77.007-40.769-99.655-31.709
		c-117.776,86.066-144.954,13.59-104.186,4.53c40.768-9.06,77.007-40.769,58.887-81.537
		c-14.722-33.113-41.402-159.042-50.915-205.019c-186.537,76.326-420.367,80.631-616.145,63.644l-7.882-3.579l99.656-163.073
		c0,0,231.02,31.709,471.1-113.246c0,0,86.067-45.298,72.478,95.126c-13.59,140.425,63.417,375.975,63.417,375.975
		s86.066,27.179,144.954,0c2.628-1.224,5.21-2.22,7.654-2.99C2139.053,1980.587,2038.989,2012.658,2014.211,1992.002"/>
	<path clip-path="url(#SVGID_2_)" fill="#31438C" d="M1183.941,1935.47c1.404,3.397,1.902,7.111,1.313,11.234
		c-28.856,57.713-106.543,23.512-136.995,7.184c-6.204-3.327-11.957-7.372-17.443-11.784c-9.767-7.856-33.549-21.447-67.522-4.459
		c-208.372,131.364-199.312,9.06-149.484,0c180.694-28.9,243.206-158.726,261.053-210.048
		c-157.275-21.698-267.485-51.323-267.485-51.323c-36.828,0-151.659,13.092-253.217,82.941
		c-59.567,40.949-109.078,106.27-143.369,165.247c0,0,126.193-254.093,249.004-285.786
		c140.424-36.238,276.319,22.649,439.392-117.774c62.795-26.912,192.208-49.383-60.319,328.376
		c-5.309,7.942-6.585,17.994-3.172,26.918C1046.363,1904.076,1080.688,1957.661,1183.941,1935.47"/>
	<path clip-path="url(#SVGID_2_)" fill="#31438C" d="M2580.212,1696.748c-252.175,111.071-603.462-112.611-603.462-112.611
		c-25.05,21.291-55.989,42.581-84.844,59.069c-24.732-214.351,54.357-190.252,54.357-190.252
		C2183.4,1657.928,2509.683,1691.72,2580.212,1696.748"/>
	<path clip-path="url(#SVGID_2_)" fill="#31438C" d="M2027.212,1167.258c-36.918-125.204-47.021-215.03-41.9-279.444
		c4.847-60.202,36.419-115.103,85.884-149.711c2.945-2.084,6.252-3.669,9.649-4.802c2.537-0.86,5.073-1.63,7.519-2.311
		c4.576-1.223,9.016-2.174,13.183-2.854c16.625-2.762,33.702-1.494,49.873,3.262
		C2107.072,767.864,1992.332,890.849,2027.212,1167.258"/>
	<path clip-path="url(#SVGID_2_)" fill="#1A2035" d="M1783.19,1697.563c0,0-22.648-117.774-8.541-198.192
		c2.095-11.94,19.252-14.916,27.293-5.844c3.841,4.334,7.028,11.439,8.428,22.844c5.713,46.588-4.531,122.305,22.648,231.021
		l-72.476-18.119L1783.19,1697.563z"/>
	<path clip-path="url(#SVGID_2_)" fill="#1A2035" d="M1316.62,1552.609c-11.053,27.904-36.012,85.07-45.298,99.656
		c-13.665,21.464-36.239,63.417-67.947,99.656c-9.377-0.815-45.163,10.011-54.358,9.06c-0.136-0.362,46.159-51.097,77.007-104.185
		c16.475-28.354,32.841-59.161,45.298-86.068c46.159-99.837,43.033-184.907-4.53-217.431
		c-34.698-23.69-115.416,1.776-172.133,40.769c-72.477,49.828-99.656,104.186-99.656,104.186s-13.589,27.178-24.069,30.171
		c-21.229,6.066-32.96-0.285-22.543-21.746c9.015-18.617,19.705-37.099,32.071-55.173c37.099-54.312,89.827-86.067,136.846-111.796
		c63.372-34.699,121.762-50.281,168.555-18.255C1350.05,1365.301,1357.523,1449.193,1316.62,1552.609"/>
	<path clip-path="url(#SVGID_2_)" fill="#CCCCCC" d="M2550.678,1331.509c-20.112,21.924-47.52,33.928-77.188,36.239
		c-41.357,3.353-87.108-12.14-123.62-45.752c-62.691-57.71-74.424-147.037-26.227-199.447
		c25.186-27.406,61.696-39.319,99.792-36.239c34.88,2.809,71.028,18.165,100.97,45.751
		C2587.097,1189.771,2598.875,1279.054,2550.678,1331.509"/>
	<path clip-path="url(#SVGID_2_)" fill="#FFFFFF" d="M2550.678,1331.509c-20.112,21.924-47.52,33.928-77.188,36.239
		c-34.88-2.809-71.027-18.165-100.97-45.752c-62.693-57.71-74.425-147.037-26.229-199.447
		c20.113-21.879,47.519-33.929,77.144-36.239c34.88,2.809,71.028,18.165,100.97,45.751
		C2587.097,1189.771,2598.875,1279.054,2550.678,1331.509"/>
	<path clip-path="url(#SVGID_2_)" fill="#FFFFFF" d="M1958.711,1053.271c-25.137,25.572-73.432,80.034-90.145,136.893
		c0,0-25.414-131.41,29.42-215.315C1921.42,1001.62,1941.631,1028.344,1958.711,1053.271"/>
	<path clip-path="url(#SVGID_2_)" fill="#FFFFFF" d="M934.759,1167.678c0,0-85.264-36.769-135.953-102.52
		c13.306-11.288,26.887-22.623,40.791-33.958c10.451-8.524,20.809-16.817,31.076-24.834
		C875.967,1036.499,893.324,1117.132,934.759,1167.678"/>
	<path clip-path="url(#SVGID_2_)" fill="#FFFFFF" d="M1679.808,1107.226c0,0-82.502-141.546-11.603-304.794
		c47.237,20.228,89.5,46.261,127.022,75.197C1795.227,877.629,1665.996,992.036,1679.808,1107.226"/>
	<path clip-path="url(#SVGID_2_)" fill="#FFFFFF" d="M1481.84,1107.226c0,0-173.521-109.063-154.046-334.743
		c61.277-12.671,118.228-15.85,170.942-11.75C1471.435,830.677,1422.634,988.718,1481.84,1107.226"/>
	<path clip-path="url(#SVGID_2_)" fill="#FFFFFF" d="M1236.314,1129.388c0,0-182.729-44.924-273.011-190.893
		c62.337-42.482,121.681-76.302,178.079-102.612C1145.157,898.547,1162.836,1014.106,1236.314,1129.388"/>
	<path clip-path="url(#SVGID_2_)" fill="#FFFFFF" d="M2298.311,886h-0.012c-16.84,8.09-35.029,16.26-53.929,24.23
		c-82.88,34.96-179.161,66.279-232.36,72.34c-8.17,0.93-15.33,1.27-21.26,0.93c-10.24-0.59-16.83-3.18-18.75-8.18l0.26-23.46
		l0.601-53.811l1.26-113.96l0.47-42.689l0.32-28.83l1.109-100.09l2.82-254.19l90.26,98.47l45.021,49.11l69.919,76.28l25.301,27.6
		l145.99,159.27l35.45,38.67l5.019,5.479C2401.72,828.64,2358.85,856.89,2298.311,886"/>
	<path clip-path="url(#SVGID_2_)" fill="#1A2035" d="M2114.89,506.184c-10.187,8.967-21.009,21.638-27.459,38.374
		c-14.134,36.693,7.199,55.433-5.063,90.576c-12.139,34.771-45.551,52.302-64.798,62.397c-13.313,6.984-28.318,12.63-43.627,16.675
		l1.124-100.729c23.276-2.334,45.479-7.648,61.74-25.644c27.954-30.946,1.154-58.28,32.399-130.832
		c0.03-0.08,0.07-0.161,0.101-0.241L2114.89,506.184z"/>
	<path clip-path="url(#SVGID_2_)" fill="#1A2035" d="M2199.815,706.588c5.144,32.738,7.715,49.102,3.037,67.429
		c-9.122,35.737-36.772,56.006-41.511,59.377c-26.193,18.639-69.183,31.269-100.235,14.09
		c-31.487-17.421-21.788-49.505-50.623-61.391c-12.747-5.253-25.211-3.341-37.34,0.091l0.476-42.963
		c16.027,0.986,32.986,3.784,49.014,8.655c38.14,11.584,44.215,26.73,73.91,26.166c27.894-0.533,63.573-14.673,69.861-38.243
		c6.155-23.077-21.424-34.298-24.3-71.454c-2.673-34.54,18.314-61.542,22.274-66.423c6.206-7.658,13.445-13.908,21.303-18.971
		l25.615,27.777c-11.866,8.212-20.907,18.447-23.631,31.449C2184.689,656.379,2192.344,659.037,2199.815,706.588"/>
	<path clip-path="url(#SVGID_2_)" fill="#1A2035" d="M2395,809.936c-14.863,0.634-29.736-0.654-41.289-2.708
		c-31.145-5.544-51.251-19.574-57.711-12.076c-5.225,6.068,5.853,17.683,10.125,38.243c3.665,17.612,1.641,38.424-4.748,55.352
		h-0.011c-17.05,8.142-35.468,16.364-54.603,24.385c-13.406-7.88-29.604-19.142-56.061-20.36
		c-19.206-0.885-28.369,4.237-87.072,26.167c-50.907,19.021-68.181,12.55-80.998,29.186c-9.527,12.369-10.833,26.6-11.127,37.811
		c-8.271,0.936-15.521,1.278-21.525,0.936c-5.043-8.424-11.117-19.293-18.721-31.843l0.607-54.153
		c11.036,4.065,22.963,6.743,35.578,6.995c18.69,0.372,51.525-6.109,69.861-12.078c13.951-4.538,17.131-8.272,40.975-17.27
		c35.548-13.425,47.9-13.919,53.185-13.929c13.233-0.03,13.729,3.322,38.474,7.045c34.161,5.132,51.242,7.699,57.711,2.013
		c13.639-11.986-5.164-38.586-3.037-92.589c0.162-4.136,2.582-57.888,17.213-60.384c13.729-2.345,18.274,43.849,47.586,53.34
		c9.831,3.18,19.804,1.378,29.695-2.999L2395,809.936z"/>
	<path clip-path="url(#SVGID_2_)" fill="#1A2035" d="M2433.15,798.88l-2.721-7.12l-490.471-535.08l-8.039,725.82l2.72,7.11
		c5.36,14.02,16.79,24.63,32.181,29.88c8.18,2.78,17.569,4.14,28.71,4.14c52.929,0,154.67-32.76,232.229-63.42
		c45.301-17.9,86.561-36.59,119.32-54.03c54.67-29.12,71.14-47.23,78.779-58.33C2440.42,826.69,2436.68,808.08,2433.15,798.88
		 M2298.311,886h-0.012c-16.84,8.09-35.029,16.26-53.929,24.23c-82.88,34.96-179.161,66.279-232.36,72.34
		c-8.17,0.93-15.33,1.27-21.26,0.93c-10.24-0.59-16.83-3.18-18.75-8.18l0.26-23.46l0.601-53.811l1.26-113.96l0.47-42.689l0.32-28.83
		l1.109-100.09l2.82-254.19l90.26,98.47l45.021,49.11l69.919,76.28l25.301,27.6l145.99,159.27l35.45,38.67l5.019,5.479
		C2401.72,828.64,2358.85,856.89,2298.311,886"/>
</g>
</svg>
