<svg version="1.1" id="logo-navbar" class="logo-navbar-default animated" xmlns="http://www.w3.org/2000/svg" xmlns:xlink="http://www.w3.org/1999/xlink" x="0px" y="0px" viewBox="0 0 419.5 141.7" style="enable-background:new 0 0 419.5 141.7;" xml:space="preserve">
              <style type="text/css">
              	.st2{fill:#FFFFFF;}
              </style>
              <g>
              	<path class="st2" d="M375,54 387.1,45.6 387.1,37.4 360.7,37.4 360.7,45.6 372.9,45.6 360.6,54.1 360.6,54.2 360.6,62.3
              		387.1,62.2 387.1,54z"></path>
              	<path class="st2" d="M360.6,84.6 368.1,84.6 368.1,73.7 370.7,73.7 370.7,84.4 377.3,84.4 377.3,73.7 379.8,73.7
              		379.8,84.5 387.1,84.5 387.1,65.4 360.6,65.4z"></path>
              	<path class="st2" d="M378.9,93.4 360.5,93.4 360.5,101.6 378.9,101.6 378.9,108.5 387,108.5 387,86.5 378.9,86.5z"></path>
              	<path class="st2" d="M30.5,37 30.5,37.6 30.5,40.4 30.5,59 40.9,59 41.6,59 41.7,59 49.2,59 49.2,73.7 49.2,76.3
              		49.2,108.7 64.9,108.7 67.3,108.7 71.4,108.7 71.4,59 90.1,59 90.1,40.4 90.1,37 41.7,37z"></path>
              	<path class="st2" d="M186.2,37.1 169.6,37.1 169,40.4 164.9,59.8 160.8,79.6 154.7,70.7 142,52 123.2,79.6 115.1,40.4
              		114.4,37.1 91.7,37.1 92.3,40.4 106.4,108.7 119,108.7 129.2,108.7 129.2,108.5 129.3,108.6 142.1,89.1 154.8,108.6 154.9,108.5
              		154.8,108.7 177.5,108.7 191.7,40.4 192.4,37.1z"></path>
              	<path class="st2" d="M245,40.4l-1.2-3.4h-26.6l-1.2,3.4l-23.7,68.3l23.5,0.1l3.3-9.5H242l3.3,9.4h1.3h0h22.2l-11.6-33.3L245,40.4z
              		 M225.5,81l5.1-14.6l5.1,14.6H225.5z"></path>
              	<path class="st2" d="M333.3,40.4 333.3,108.7 355.6,108.7 355.6,40.4 355.6,37 333.3,37z"></path>
              	<path class="st2" d="M308.6,64.8c0,0-3.2-0.5-7.1-1.2c-7.1-1-8.3-1.5-8.3-1.5c-1.3-0.5-2.8-2.1-2.2-4.3c0.8-3,3.2-2.5,9.8-2.1
              		c5.3,0.4,17.8,2,17.8,2l3.9-17.2l0-0.1h0.1l0.5-2.7l0.2-0.7c0,0,0,0,0,0l0-0.1c0,0-14.4-2.5-22.1-2.9c-7.8-0.3-15.9,0.1-22.5,5.3
              		c-0.5,0.4-0.9,0.7-1.3,1.1h0.1c0,0-0.1,0.1-0.1,0.1h-0.1c-5.6,4.8-7.6,10.7-8.7,18.4c-1,8,3.2,18.5,13.7,20.7c0,0,3.1,0.7,9.5,1.7
              		c6.5,0.8,6.7,0.9,6.7,0.9c5.8,0.7,5.7,3.5,5.4,5c-0.5,2.4-2.5,3-5,3c-1.4,0-3-0.2-4.5-0.2c-8.2-0.5-19.1-2.2-19.1-2.2l0,0
              		c-0.1,0-0.2,0-0.2,0l-4.3,21.4c0,0,12.7,2.5,21.2,2.7c1.6,0,3.2,0,4.8,0c7,0,14.7-0.5,20.2-4.5c6.5-5.2,8.9-11.3,10.1-19.5
              		C328.2,77.8,322.1,67.2,308.6,64.8z"></path>
              </g>
            </svg>
